<?xml version="1.0" encoding="UTF-8" standalone="no"?>
<!DOCTYPE svg PUBLIC "-//W3C//DTD SVG 1.1//EN"
 "http://www.w3.org/Graphics/SVG/1.1/DTD/svg11.dtd">
<!-- Generated by graphviz version 2.47.0 (20210316.0004)
 -->
<!-- Title: dependencies Pages: 1 -->
<svg width="558pt" height="284pt"
 viewBox="0.00 0.00 558.00 284.00" xmlns="http://www.w3.org/2000/svg" xmlns:xlink="http://www.w3.org/1999/xlink">
<g id="graph0" class="graph" transform="scale(1 1) rotate(0) translate(4 280)">
<title>dependencies</title>
<polygon fill="white" stroke="transparent" points="-4,4 -4,-280 554,-280 554,4 -4,4"/>
<text text-anchor="start" x="254.01" y="-42.4" font-family="Times-12" font-weight="bold" font-size="14.00">Legend</text>
<polygon fill="#ffffb3" stroke="transparent" points="41,-10 41,-30 61,-30 61,-10 41,-10"/>
<text text-anchor="start" x="64.63" y="-15.4" font-family="Times-12" font-size="14.00"> &#160;Declarations</text>
<polygon fill="#8dd3c7" stroke="transparent" points="154,-10 154,-30 174,-30 174,-10 154,-10"/>
<text text-anchor="start" x="177.73" y="-15.4" font-family="Times-12" font-size="14.00"> &#160;Module</text>
<polygon fill="#80b1d3" stroke="transparent" points="240,-10 240,-30 260,-30 260,-10 240,-10"/>
<text text-anchor="start" x="263.78" y="-15.4" font-family="Times-12" font-size="14.00"> &#160;Bootstrap</text>
<polygon fill="#fdb462" stroke="transparent" points="337,-10 337,-30 357,-30 357,-10 337,-10"/>
<text text-anchor="start" x="360.67" y="-15.4" font-family="Times-12" font-size="14.00"> &#160;Providers</text>
<polygon fill="#fb8072" stroke="transparent" points="433,-10 433,-30 453,-30 453,-10 433,-10"/>
<text text-anchor="start" x="456.73" y="-15.4" font-family="Times-12" font-size="14.00"> &#160;Exports</text>
<g id="clust1" class="cluster">
<title>cluster_LogsAndJournalsModule</title>
<polygon fill="none" stroke="black" stroke-dasharray="1,5" points="8,-70 8,-268 542,-268 542,-70 8,-70"/>
</g>
<g id="clust4" class="cluster">
<title>cluster_LogsAndJournalsModule_exports</title>
<polygon fill="none" stroke="black" points="90,-208 90,-260 394,-260 394,-208 90,-208"/>
</g>
<g id="clust6" class="cluster">
<title>cluster_LogsAndJournalsModule_providers</title>
<polygon fill="none" stroke="black" points="136,-78 136,-130 534,-130 534,-78 136,-78"/>
</g>
<g id="clust3" class="cluster">
<title>cluster_LogsAndJournalsModule_imports</title>
<polygon fill="none" stroke="black" points="16,-78 16,-130 128,-130 128,-78 16,-78"/>
</g>
<!-- RabbitModule -->
<g id="node1" class="node">
<title>RabbitModule</title>
<polygon fill="#8dd3c7" stroke="black" points="120.38,-122 117.38,-126 96.38,-126 93.38,-122 23.62,-122 23.62,-86 120.38,-86 120.38,-122"/>
<text text-anchor="middle" x="72" y="-99.8" font-family="Times,serif" font-size="14.00">RabbitModule</text>
</g>
<!-- LogsAndJournalsModule -->
<g id="node2" class="node">
<title>LogsAndJournalsModule</title>
<polygon fill="#8dd3c7" stroke="black" points="331.31,-187 328.31,-191 307.31,-191 304.31,-187 172.69,-187 172.69,-151 331.31,-151 331.31,-187"/>
<text text-anchor="middle" x="252" y="-164.8" font-family="Times,serif" font-size="14.00">LogsAndJournalsModule</text>
</g>
<!-- RabbitModule&#45;&gt;LogsAndJournalsModule -->
<g id="edge1" class="edge">
<title>RabbitModule&#45;&gt;LogsAndJournalsModule</title>
<path fill="none" stroke="black" d="M109.16,-122.11C109.16,-141.34 109.16,-169 109.16,-169 109.16,-169 162.64,-169 162.64,-169"/>
<polygon fill="black" stroke="black" points="162.64,-172.5 172.64,-169 162.64,-165.5 162.64,-172.5"/>
</g>
<!-- AppLoggerLoki  -->
<g id="node3" class="node">
<title>AppLoggerLoki </title>
<polygon fill="#fb8072" stroke="black" points="386.48,-252 275.52,-252 275.52,-216 386.48,-216 386.48,-252"/>
<text text-anchor="middle" x="331" y="-229.8" font-family="Times,serif" font-size="14.00">AppLoggerLoki </text>
</g>
<!-- LogsAndJournalsModule&#45;&gt;AppLoggerLoki  -->
<g id="edge2" class="edge">
<title>LogsAndJournalsModule&#45;&gt;AppLoggerLoki </title>
<path fill="none" stroke="black" stroke-dasharray="5,2" d="M303.46,-187.11C303.46,-187.11 303.46,-205.99 303.46,-205.99"/>
<polygon fill="black" stroke="black" points="299.96,-205.99 303.46,-215.99 306.96,-205.99 299.96,-205.99"/>
</g>
<!-- LogsAndJournalsService  -->
<g id="node4" class="node">
<title>LogsAndJournalsService </title>
<polygon fill="#fb8072" stroke="black" points="258.24,-252 97.76,-252 97.76,-216 258.24,-216 258.24,-252"/>
<text text-anchor="middle" x="178" y="-229.8" font-family="Times,serif" font-size="14.00">LogsAndJournalsService </text>
</g>
<!-- LogsAndJournalsModule&#45;&gt;LogsAndJournalsService  -->
<g id="edge3" class="edge">
<title>LogsAndJournalsModule&#45;&gt;LogsAndJournalsService </title>
<path fill="none" stroke="black" stroke-dasharray="5,2" d="M215.48,-187.11C215.48,-187.11 215.48,-205.99 215.48,-205.99"/>
<polygon fill="black" stroke="black" points="211.98,-205.99 215.48,-215.99 218.98,-205.99 211.98,-205.99"/>
</g>
<!-- AppLoggerLoki -->
<g id="node5" class="node">
<title>AppLoggerLoki</title>
<ellipse fill="#fdb462" stroke="black" cx="452" cy="-104" rx="73.58" ry="18"/>
<text text-anchor="middle" x="452" y="-99.8" font-family="Times,serif" font-size="14.00">AppLoggerLoki</text>
</g>
<!-- AppLoggerLoki&#45;&gt;LogsAndJournalsModule -->
<g id="edge4" class="edge">
<title>AppLoggerLoki&#45;&gt;LogsAndJournalsModule</title>
<path fill="none" stroke="black" d="M382.22,-110C382.22,-126.09 382.22,-169 382.22,-169 382.22,-169 341.5,-169 341.5,-169"/>
<polygon fill="black" stroke="black" points="341.5,-165.5 331.5,-169 341.5,-172.5 341.5,-165.5"/>
</g>
<!-- LogsAndJournalsService -->
<g id="node6" class="node">
<title>LogsAndJournalsService</title>
<ellipse fill="#fdb462" stroke="black" cx="252" cy="-104" rx="108.23" ry="18"/>
<text text-anchor="middle" x="252" y="-99.8" font-family="Times,serif" font-size="14.00">LogsAndJournalsService</text>
</g>
<!-- LogsAndJournalsService&#45;&gt;LogsAndJournalsModule -->
<g id="edge5" class="edge">
<title>LogsAndJournalsService&#45;&gt;LogsAndJournalsModule</title>
<path fill="none" stroke="black" d="M252,-122.11C252,-122.11 252,-140.99 252,-140.99"/>
<polygon fill="black" stroke="black" points="248.5,-140.99 252,-150.99 255.5,-140.99 248.5,-140.99"/>
</g>
</g>
</svg>
