<?xml version="1.0" encoding="UTF-8" standalone="no"?>
<!DOCTYPE svg PUBLIC "-//W3C//DTD SVG 1.1//EN"
 "http://www.w3.org/Graphics/SVG/1.1/DTD/svg11.dtd">
<!-- Generated by graphviz version 2.47.0 (20210316.0004)
 -->
<!-- Title: dependencies Pages: 1 -->
<svg width="736pt" height="284pt"
 viewBox="0.00 0.00 736.00 284.00" xmlns="http://www.w3.org/2000/svg" xmlns:xlink="http://www.w3.org/1999/xlink">
<g id="graph0" class="graph" transform="scale(1 1) rotate(0) translate(4 280)">
<title>dependencies</title>
<polygon fill="white" stroke="transparent" points="-4,4 -4,-280 732,-280 732,4 -4,4"/>
<text text-anchor="start" x="343.01" y="-42.4" font-family="Times-12" font-weight="bold" font-size="14.00">Legend</text>
<polygon fill="#ffffb3" stroke="transparent" points="130,-10 130,-30 150,-30 150,-10 130,-10"/>
<text text-anchor="start" x="153.63" y="-15.4" font-family="Times-12" font-size="14.00"> &#160;Declarations</text>
<polygon fill="#8dd3c7" stroke="transparent" points="243,-10 243,-30 263,-30 263,-10 243,-10"/>
<text text-anchor="start" x="266.73" y="-15.4" font-family="Times-12" font-size="14.00"> &#160;Module</text>
<polygon fill="#80b1d3" stroke="transparent" points="329,-10 329,-30 349,-30 349,-10 329,-10"/>
<text text-anchor="start" x="352.78" y="-15.4" font-family="Times-12" font-size="14.00"> &#160;Bootstrap</text>
<polygon fill="#fdb462" stroke="transparent" points="426,-10 426,-30 446,-30 446,-10 426,-10"/>
<text text-anchor="start" x="449.67" y="-15.4" font-family="Times-12" font-size="14.00"> &#160;Providers</text>
<polygon fill="#fb8072" stroke="transparent" points="522,-10 522,-30 542,-30 542,-10 522,-10"/>
<text text-anchor="start" x="545.73" y="-15.4" font-family="Times-12" font-size="14.00"> &#160;Exports</text>
<g id="clust1" class="cluster">
<title>cluster_SearchClientsModule</title>
<polygon fill="none" stroke="black" stroke-dasharray="1,5" points="8,-70 8,-268 720,-268 720,-70 8,-70"/>
</g>
<g id="clust6" class="cluster">
<title>cluster_SearchClientsModule_providers</title>
<polygon fill="none" stroke="black" points="313,-78 313,-130 712,-130 712,-78 313,-78"/>
</g>
<g id="clust4" class="cluster">
<title>cluster_SearchClientsModule_exports</title>
<polygon fill="none" stroke="black" points="161,-208 161,-260 467,-260 467,-208 161,-208"/>
</g>
<g id="clust3" class="cluster">
<title>cluster_SearchClientsModule_imports</title>
<polygon fill="none" stroke="black" points="16,-78 16,-130 305,-130 305,-78 16,-78"/>
</g>
<!-- LogsAndJournalsModule -->
<g id="node1" class="node">
<title>LogsAndJournalsModule</title>
<polygon fill="#8dd3c7" stroke="black" points="297.31,-122 294.31,-126 273.31,-126 270.31,-122 138.69,-122 138.69,-86 297.31,-86 297.31,-122"/>
<text text-anchor="middle" x="218" y="-99.8" font-family="Times,serif" font-size="14.00">LogsAndJournalsModule</text>
</g>
<!-- SearchClientsModule -->
<g id="node3" class="node">
<title>SearchClientsModule</title>
<polygon fill="#8dd3c7" stroke="black" points="384.8,-187 381.8,-191 360.8,-191 357.8,-187 247.2,-187 247.2,-151 384.8,-151 384.8,-187"/>
<text text-anchor="middle" x="316" y="-164.8" font-family="Times,serif" font-size="14.00">SearchClientsModule</text>
</g>
<!-- LogsAndJournalsModule&#45;&gt;SearchClientsModule -->
<g id="edge1" class="edge">
<title>LogsAndJournalsModule&#45;&gt;SearchClientsModule</title>
<path fill="none" stroke="black" d="M272.25,-122.11C272.25,-122.11 272.25,-140.99 272.25,-140.99"/>
<polygon fill="black" stroke="black" points="268.75,-140.99 272.25,-150.99 275.75,-140.99 268.75,-140.99"/>
</g>
<!-- RabbitModule -->
<g id="node2" class="node">
<title>RabbitModule</title>
<polygon fill="#8dd3c7" stroke="black" points="120.38,-122 117.38,-126 96.38,-126 93.38,-122 23.62,-122 23.62,-86 120.38,-86 120.38,-122"/>
<text text-anchor="middle" x="72" y="-99.8" font-family="Times,serif" font-size="14.00">RabbitModule</text>
</g>
<!-- RabbitModule&#45;&gt;SearchClientsModule -->
<g id="edge2" class="edge">
<title>RabbitModule&#45;&gt;SearchClientsModule</title>
<path fill="none" stroke="black" d="M72,-122.11C72,-141.34 72,-169 72,-169 72,-169 237.06,-169 237.06,-169"/>
<polygon fill="black" stroke="black" points="237.06,-172.5 247.06,-169 237.06,-165.5 237.06,-172.5"/>
</g>
<!-- SearchAreasService  -->
<g id="node4" class="node">
<title>SearchAreasService </title>
<polygon fill="#fb8072" stroke="black" points="459.21,-252 326.79,-252 326.79,-216 459.21,-216 459.21,-252"/>
<text text-anchor="middle" x="393" y="-229.8" font-family="Times,serif" font-size="14.00">SearchAreasService </text>
</g>
<!-- SearchClientsModule&#45;&gt;SearchAreasService  -->
<g id="edge3" class="edge">
<title>SearchClientsModule&#45;&gt;SearchAreasService </title>
<path fill="none" stroke="black" stroke-dasharray="5,2" d="M355.77,-187.11C355.77,-187.11 355.77,-205.99 355.77,-205.99"/>
<polygon fill="black" stroke="black" points="352.27,-205.99 355.77,-215.99 359.27,-205.99 352.27,-205.99"/>
</g>
<!-- SearchClientsService  -->
<g id="node5" class="node">
<title>SearchClientsService </title>
<polygon fill="#fb8072" stroke="black" points="308.73,-252 169.27,-252 169.27,-216 308.73,-216 308.73,-252"/>
<text text-anchor="middle" x="239" y="-229.8" font-family="Times,serif" font-size="14.00">SearchClientsService </text>
</g>
<!-- SearchClientsModule&#45;&gt;SearchClientsService  -->
<g id="edge4" class="edge">
<title>SearchClientsModule&#45;&gt;SearchClientsService </title>
<path fill="none" stroke="black" stroke-dasharray="5,2" d="M277.98,-187.11C277.98,-187.11 277.98,-205.99 277.98,-205.99"/>
<polygon fill="black" stroke="black" points="274.48,-205.99 277.98,-215.99 281.48,-205.99 274.48,-205.99"/>
</g>
<!-- SearchAreasService -->
<g id="node6" class="node">
<title>SearchAreasService</title>
<ellipse fill="#fdb462" stroke="black" cx="615" cy="-104" rx="88.56" ry="18"/>
<text text-anchor="middle" x="615" y="-99.8" font-family="Times,serif" font-size="14.00">SearchAreasService</text>
</g>
<!-- SearchAreasService&#45;&gt;SearchClientsModule -->
<g id="edge5" class="edge">
<title>SearchAreasService&#45;&gt;SearchClientsModule</title>
<path fill="none" stroke="black" d="M615,-122.11C615,-141.34 615,-169 615,-169 615,-169 394.97,-169 394.97,-169"/>
<polygon fill="black" stroke="black" points="394.97,-165.5 384.97,-169 394.97,-172.5 394.97,-165.5"/>
</g>
<!-- SearchClientsService -->
<g id="node7" class="node">
<title>SearchClientsService</title>
<ellipse fill="#fdb462" stroke="black" cx="415" cy="-104" rx="93.75" ry="18"/>
<text text-anchor="middle" x="415" y="-99.8" font-family="Times,serif" font-size="14.00">SearchClientsService</text>
</g>
<!-- SearchClientsService&#45;&gt;SearchClientsModule -->
<g id="edge6" class="edge">
<title>SearchClientsService&#45;&gt;SearchClientsModule</title>
<path fill="none" stroke="black" d="M353.01,-117.78C353.01,-117.78 353.01,-140.55 353.01,-140.55"/>
<polygon fill="black" stroke="black" points="349.51,-140.55 353.01,-150.55 356.51,-140.55 349.51,-140.55"/>
</g>
</g>
</svg>
