<svg width="24" className="w-6 h-6" viewBox="0 0 24 24" fill="none" xmlns="http://www.w3.org/2000/svg">
	<path d="M2.99997 6L5.99997 2H18L21 6M2.99997 6V20C2.99997 20.5304 3.21068 21.0391 3.58576 21.4142C3.96083 21.7893 4.46954 22 4.99997 22H19C19.5304 22 20.0391 21.7893 20.4142 21.4142C20.7893 21.0391 21 20.5304 21 20V6M2.99997 6H21M16 10C16 11.0609 15.5785 12.0783 14.8284 12.8284C14.0783 13.5786 13.0608 14 12 14C10.9391 14 9.92169 13.5786 9.17154 12.8284C8.4214 12.0783 7.99997 11.0609 7.99997 10" stroke="#020202" strokeLinecap="round" stroke-linejoin="round"></path>
</svg>