<svg width="325" height="47" viewBox="0 0 325 47" fill="none" xmlns="http://www.w3.org/2000/svg">
<path d="M25.6329 45.8246H0V1.3171H25.6329V9.0496H9.4373V18.8218H24.5065V26.5543H9.4373V38.0313H25.6329V45.8246Z" fill="#FDFDFD"></path>
<path d="M47.9171 1.3171C51.9559 1.3171 55.2843 1.80418 57.9024 2.77836C60.5408 3.75253 62.4993 5.22394 63.7779 7.19258C65.0565 9.16122 65.6958 11.6474 65.6958 14.6511C65.6958 16.6806 65.3102 18.4565 64.539 19.9786C63.7678 21.5007 62.753 22.7895 61.4947 23.8449C60.2364 24.9002 58.8766 25.7628 57.4153 26.4325L70.5058 45.8246H60.0334L49.4089 28.7462H44.3858V45.8246H34.9485V1.3171H47.9171ZM47.2474 9.0496H44.3858V21.0745H47.4301C50.5555 21.0745 52.788 20.557 54.1275 19.522C55.4873 18.4666 56.1672 16.9242 56.1672 14.8946C56.1672 12.7839 55.4366 11.2821 53.9753 10.3891C52.5343 9.49609 50.2917 9.0496 47.2474 9.0496Z" fill="#FDFDFD"></path>
<path d="M76.1073 45.8246V1.3171H85.5446V45.8246H76.1073Z" fill="#FDFDFD"></path>
<path d="M123.02 33.4648C123.02 36.1032 122.381 38.3966 121.102 40.3449C119.823 42.2933 117.956 43.7951 115.5 44.8505C113.065 45.9058 110.102 46.4335 106.611 46.4335C105.069 46.4335 103.557 46.332 102.075 46.1291C100.614 45.9261 99.2033 45.6318 97.8435 45.2462C96.504 44.8403 95.2254 44.3431 94.0077 43.7545V34.987C96.1184 35.9205 98.3103 36.7628 100.583 37.5137C102.856 38.2646 105.109 38.6401 107.342 38.6401C108.884 38.6401 110.122 38.4372 111.056 38.0313C112.01 37.6253 112.7 37.0672 113.126 36.3569C113.552 35.6466 113.765 34.8347 113.765 33.9215C113.765 32.8052 113.39 31.8513 112.639 31.0598C111.888 30.2683 110.853 29.5275 109.534 28.8375C108.235 28.1475 106.763 27.4067 105.119 26.6152C104.084 26.1281 102.958 25.5395 101.74 24.8495C100.523 24.1391 99.3657 23.2766 98.2697 22.2618C97.1738 21.2471 96.2706 20.0192 95.5603 18.5782C94.8703 17.117 94.5253 15.3716 94.5253 13.342C94.5253 10.6834 95.1341 8.4103 96.3518 6.52284C97.5695 4.63537 99.3048 3.19441 101.558 2.19994C103.831 1.18518 106.51 0.677795 109.594 0.677795C111.908 0.677795 114.11 0.951782 116.201 1.49975C118.311 2.02743 120.513 2.79865 122.807 3.81342L119.762 11.1502C117.713 10.3181 115.876 9.67875 114.252 9.23225C112.629 8.76546 110.975 8.53207 109.29 8.53207C108.113 8.53207 107.108 8.72487 106.276 9.11048C105.444 9.4758 104.815 10.0035 104.389 10.6935C103.963 11.3633 103.749 12.1446 103.749 13.0376C103.749 14.093 104.054 14.986 104.663 15.7166C105.292 16.4269 106.225 17.117 107.463 17.7867C108.722 18.4565 110.285 19.2378 112.152 20.1308C114.425 21.2065 116.363 22.3329 117.966 23.51C119.59 24.6668 120.838 26.0367 121.711 27.6198C122.583 29.1825 123.02 31.1309 123.02 33.4648Z" fill="#FDFDFD"></path>
<path d="M148.257 45.8246H138.82V9.17137H126.734V1.3171H160.343V9.17137H148.257V45.8246Z" fill="#FDFDFD"></path>
<path d="M204.668 36.7222C204.668 39.8274 203.511 42.2222 201.197 43.9067C198.884 45.5912 195.636 46.4335 191.456 46.4335C187.031 46.4335 183.581 45.7333 181.105 44.3329V39.6447C182.708 40.4565 184.423 41.0958 186.25 41.5626C188.097 42.0294 189.872 42.2628 191.577 42.2628C194.216 42.2628 196.245 41.8468 197.666 41.0147C199.087 40.1623 199.797 38.8735 199.797 37.1484C199.797 35.8495 199.229 34.7434 198.092 33.8301C196.976 32.8965 194.784 31.8006 191.516 30.5423C188.411 29.3855 186.199 28.3808 184.88 27.5284C183.581 26.6558 182.607 25.6714 181.957 24.5755C181.328 23.4795 181.014 22.1705 181.014 20.6483C181.014 17.9288 182.12 15.7876 184.332 14.2249C186.544 12.6419 189.578 11.8503 193.434 11.8503C197.027 11.8503 200.538 12.581 203.968 14.0422L202.171 18.152C198.823 16.7719 195.789 16.0819 193.069 16.0819C190.674 16.0819 188.868 16.4574 187.65 17.2083C186.432 17.9592 185.824 18.9943 185.824 20.3135C185.824 21.2065 186.047 21.9675 186.493 22.5967C186.96 23.2258 187.701 23.8246 188.716 24.3928C189.73 24.9611 191.679 25.7831 194.561 26.8587C198.518 28.2997 201.187 29.7508 202.567 31.212C203.968 32.6733 204.668 34.51 204.668 36.7222Z" fill="#FDFDFD"></path>
<path d="M223.695 42.2628C224.588 42.2628 225.45 42.2019 226.282 42.0802C227.114 41.9381 227.774 41.796 228.261 41.654V45.5202C227.713 45.784 226.901 45.9972 225.826 46.1595C224.77 46.3422 223.816 46.4335 222.964 46.4335C216.51 46.4335 213.283 43.034 213.283 36.2351V16.3863H208.504V13.9509L213.283 11.8503L215.414 4.7267H218.337V12.4592H228.017V16.3863H218.337V36.022C218.337 38.0313 218.814 39.5737 219.767 40.6493C220.721 41.725 222.03 42.2628 223.695 42.2628Z" fill="#FDFDFD"></path>
<path d="M263.757 29.1115C263.757 34.5506 262.387 38.8025 259.648 41.8671C256.908 44.9114 253.123 46.4335 248.292 46.4335C245.309 46.4335 242.66 45.7333 240.347 44.3329C238.033 42.9326 236.247 40.9233 234.989 38.3052C233.731 35.6871 233.101 32.6226 233.101 29.1115C233.101 23.6723 234.461 19.4408 237.181 16.4168C239.9 13.3725 243.675 11.8503 248.506 11.8503C253.173 11.8503 256.877 13.4029 259.617 16.5081C262.377 19.6133 263.757 23.8144 263.757 29.1115ZM238.338 29.1115C238.338 33.3735 239.19 36.6207 240.895 38.8532C242.6 41.0857 245.106 42.2019 248.414 42.2019C251.722 42.2019 254.229 41.0958 255.934 38.8837C257.659 36.6512 258.521 33.3938 258.521 29.1115C258.521 24.8698 257.659 21.653 255.934 19.4611C254.229 17.2489 251.702 16.1428 248.353 16.1428C245.045 16.1428 242.549 17.2286 240.864 19.4002C239.18 21.5718 238.338 24.8089 238.338 29.1115Z" fill="#FDFDFD"></path>
<path d="M287.868 11.8503C289.35 11.8503 290.679 11.9721 291.856 12.2157L291.156 16.9039C289.776 16.5994 288.558 16.4472 287.503 16.4472C284.804 16.4472 282.49 17.5432 280.562 19.7351C278.654 21.927 277.7 24.6567 277.7 27.9242V45.8246H272.647V12.4592H276.817L277.396 18.6391H277.639C278.877 16.4675 280.369 14.7932 282.115 13.616C283.86 12.4389 285.778 11.8503 287.868 11.8503Z" fill="#FDFDFD"></path>
<path d="M312.192 46.4335C307.26 46.4335 303.364 44.9316 300.502 41.9279C297.661 38.9242 296.24 34.7536 296.24 29.4159C296.24 24.0377 297.559 19.7655 300.198 16.5994C302.856 13.4334 306.418 11.8503 310.883 11.8503C315.064 11.8503 318.372 13.2304 320.807 15.9906C323.243 18.7304 324.461 22.3532 324.461 26.8587V30.0552H301.476C301.578 33.9722 302.562 36.9455 304.429 38.975C306.317 41.0045 308.965 42.0193 312.375 42.0193C315.967 42.0193 319.519 41.2683 323.03 39.7665V44.2721C321.244 45.0433 319.549 45.5912 317.946 45.916C316.363 46.261 314.445 46.4335 312.192 46.4335ZM310.822 16.0819C308.143 16.0819 306.002 16.9546 304.399 18.7C302.816 20.4454 301.882 22.8605 301.598 25.9454H319.042C319.042 22.7591 318.331 20.3236 316.911 18.6391C315.49 16.9343 313.461 16.0819 310.822 16.0819Z" fill="#FDFDFD"></path>
</svg>