<svg width="90" height="16" viewBox="0 0 90 16" fill="none" xmlns="http://www.w3.org/2000/svg">
<path d="M6.96968 13.2756H0V1.17383H6.96968V3.27632H2.56603V5.93341H6.66341V8.0359H2.56603V11.1565H6.96968V13.2756Z" fill="#020202"></path>
<path d="M13.0288 1.17383C14.127 1.17383 15.032 1.30627 15.7439 1.57115C16.4612 1.83603 16.9938 2.23611 17.3414 2.77139C17.6891 3.30667 17.8629 3.98267 17.8629 4.79939C17.8629 5.35122 17.7581 5.83408 17.5484 6.24795C17.3387 6.66183 17.0627 7.01225 16.7206 7.2992C16.3785 7.58615 16.0087 7.82068 15.6114 8.00279L19.1708 13.2756H16.3233L13.4344 8.63188H12.0686V13.2756H9.5026V1.17383H13.0288ZM12.8467 3.27632H12.0686V6.54595H12.8964C13.7462 6.54595 14.3532 6.40523 14.7174 6.12379C15.0872 5.83684 15.272 5.41744 15.272 4.86561C15.272 4.2917 15.0734 3.88334 14.6761 3.64053C14.2843 3.39772 13.6745 3.27632 12.8467 3.27632Z" fill="#020202"></path>
<path d="M20.6938 13.2756V1.17383H23.2599V13.2756H20.6938Z" fill="#020202"></path>
<path d="M33.4495 9.9149C33.4495 10.6323 33.2757 11.2559 32.928 11.7856C32.5804 12.3154 32.0727 12.7237 31.4049 13.0107C30.7427 13.2977 29.9371 13.4411 28.9879 13.4411C28.5685 13.4411 28.1574 13.4135 27.7546 13.3584C27.3572 13.3032 26.9737 13.2232 26.604 13.1183C26.2398 13.0079 25.8921 12.8727 25.561 12.7127V10.3288C26.1349 10.5826 26.7309 10.8116 27.349 11.0158C27.967 11.22 28.5795 11.3221 29.1866 11.3221C29.606 11.3221 29.9426 11.2669 30.1964 11.1565C30.4558 11.0462 30.6434 10.8944 30.7593 10.7013C30.8752 10.5081 30.9331 10.2874 30.9331 10.0391C30.9331 9.73555 30.831 9.47619 30.6269 9.26097C30.4227 9.04576 30.1412 8.84434 29.7826 8.65672C29.4294 8.46909 29.0293 8.26767 28.5823 8.05246C28.3009 7.92002 27.9946 7.75998 27.6635 7.57236C27.3324 7.37922 27.0179 7.14469 26.7199 6.86877C26.4219 6.59285 26.1763 6.25899 25.9832 5.86719C25.7955 5.46987 25.7017 4.99529 25.7017 4.44345C25.7017 3.72055 25.8673 3.10249 26.1984 2.58929C26.5295 2.07608 27.0013 1.68428 27.6138 1.41388C28.2319 1.13796 28.9603 1 29.7991 1C30.4282 1 31.0269 1.0745 31.5953 1.22349C32.1692 1.36697 32.768 1.57667 33.3916 1.85259L32.5638 3.84747C32.0064 3.62122 31.507 3.44739 31.0656 3.32599C30.6241 3.19906 30.1744 3.1356 29.7163 3.1356C29.3963 3.1356 29.1231 3.18803 28.8969 3.29288C28.6706 3.39221 28.4995 3.53568 28.3836 3.72331C28.2678 3.90541 28.2098 4.11787 28.2098 4.36068C28.2098 4.64763 28.2926 4.89044 28.4581 5.0891C28.6292 5.28224 28.8831 5.46987 29.2197 5.65197C29.5618 5.83408 29.9867 6.04653 30.4944 6.28934C31.1125 6.58181 31.6395 6.88808 32.0754 7.20815C32.5169 7.52269 32.8563 7.89518 33.0936 8.32561C33.3309 8.75053 33.4495 9.28029 33.4495 9.9149Z" fill="#020202"></path>
<path d="M40.3116 13.2756H37.7455V3.30943H34.4594V1.17383H43.5977V3.30943H40.3116V13.2756Z" fill="#020202"></path>
<path d="M55.6498 10.8006C55.6498 11.6449 55.3353 12.2961 54.7062 12.7541C54.0771 13.2121 53.1942 13.4411 52.0574 13.4411C50.8544 13.4411 49.9163 13.2507 49.243 12.87V11.5952C49.679 11.816 50.1453 11.9898 50.6419 12.1167C51.1441 12.2436 51.627 12.3071 52.0905 12.3071C52.8079 12.3071 53.3597 12.194 53.746 11.9677C54.1323 11.736 54.3254 11.3855 54.3254 10.9165C54.3254 10.5633 54.1709 10.2626 53.8619 10.0142C53.5584 9.76039 52.9624 9.46239 52.0739 9.12026C51.2296 8.80571 50.6281 8.53255 50.2694 8.30078C49.9163 8.06349 49.6514 7.79585 49.4748 7.49786C49.3037 7.19987 49.2182 6.84394 49.2182 6.43006C49.2182 5.6906 49.5189 5.10841 50.1204 4.6835C50.7219 4.25307 51.5469 4.03785 52.5954 4.03785C53.5722 4.03785 54.5268 4.23651 55.4594 4.63384L54.9711 5.7513C54.0605 5.37605 53.2356 5.18843 52.4961 5.18843C51.8449 5.18843 51.3538 5.29052 51.0227 5.4947C50.6916 5.69888 50.526 5.98031 50.526 6.33901C50.526 6.58181 50.5867 6.78875 50.7081 6.95982C50.8351 7.13089 51.0365 7.29368 51.3124 7.4482C51.5883 7.60271 52.1181 7.8262 52.9017 8.11868C53.9778 8.51048 54.7034 8.90504 55.0787 9.30236C55.4594 9.69968 55.6498 10.1991 55.6498 10.8006Z" fill="#020202"></path>
<path d="M60.8233 12.3071C61.0661 12.3071 61.3006 12.2906 61.5269 12.2574C61.7531 12.2188 61.9325 12.1802 62.0649 12.1416V13.1928C61.9159 13.2645 61.6952 13.3225 61.4027 13.3666C61.1158 13.4163 60.8564 13.4411 60.6246 13.4411C58.8698 13.4411 57.9924 12.5168 57.9924 10.6682V5.27121H56.6928V4.609L57.9924 4.03785L58.5718 2.10091H59.3664V4.2034H61.9987V5.27121H59.3664V10.6102C59.3664 11.1565 59.4961 11.5759 59.7555 11.8684C60.0149 12.1609 60.3708 12.3071 60.8233 12.3071Z" fill="#020202"></path>
<path d="M71.7165 8.73121C71.7165 10.2101 71.344 11.3662 70.5991 12.1995C69.8541 13.0273 68.8249 13.4411 67.5115 13.4411C66.7003 13.4411 65.9802 13.2507 65.3511 12.87C64.722 12.4892 64.2364 11.9429 63.8943 11.231C63.5521 10.5192 63.381 9.68589 63.381 8.73121C63.381 7.25229 63.7508 6.10172 64.4902 5.27948C65.2297 4.45173 66.2561 4.03785 67.5695 4.03785C68.8387 4.03785 69.8458 4.46001 70.5908 5.30432C71.3413 6.14862 71.7165 7.29092 71.7165 8.73121ZM64.8048 8.73121C64.8048 9.89007 65.0366 10.773 65.5001 11.38C65.9636 11.987 66.6451 12.2906 67.5446 12.2906C68.4441 12.2906 69.1256 11.9898 69.5892 11.3883C70.0583 10.7813 70.2928 9.89559 70.2928 8.73121C70.2928 7.57788 70.0583 6.70322 69.5892 6.10724C69.1256 5.50574 68.4386 5.20499 67.5281 5.20499C66.6286 5.20499 65.9498 5.50022 65.4918 6.09068C65.0338 6.68115 64.8048 7.56132 64.8048 8.73121Z" fill="#020202"></path>
<path d="M78.2723 4.03785C78.6752 4.03785 79.0366 4.07096 79.3567 4.13718L79.1663 5.41192C78.791 5.32915 78.4599 5.28776 78.173 5.28776C77.439 5.28776 76.81 5.58575 76.2857 6.18173C75.767 6.77772 75.5076 7.51993 75.5076 8.40839V13.2756H74.1336V4.2034H75.2676L75.4249 5.88374H75.4911C75.8277 5.29328 76.2333 4.83801 76.7079 4.51795C77.1824 4.19789 77.7039 4.03785 78.2723 4.03785Z" fill="#020202"></path>
<path d="M84.8861 13.4411C83.5451 13.4411 82.4856 13.0328 81.7075 12.2161C80.9349 11.3993 80.5486 10.2653 80.5486 8.81399C80.5486 7.35162 80.9073 6.19001 81.6247 5.32915C82.3476 4.46829 83.3161 4.03785 84.5301 4.03785C85.6669 4.03785 86.5664 4.4131 87.2286 5.1636C87.8908 5.90858 88.2219 6.8936 88.2219 8.11868V8.98782H81.9724C82 10.0529 82.2676 10.8613 82.7753 11.4131C83.2885 11.965 84.0087 12.2409 84.9357 12.2409C85.9125 12.2409 86.8782 12.0367 87.8329 11.6283V12.8534C87.3473 13.0631 86.8865 13.2121 86.4505 13.3004C86.0201 13.3942 85.4986 13.4411 84.8861 13.4411ZM84.5136 5.18843C83.7852 5.18843 83.203 5.42572 82.767 5.9003C82.3366 6.37488 82.0827 7.03156 82.0055 7.87035H86.7485C86.7485 7.00397 86.5554 6.34177 86.1691 5.88374C85.7828 5.4202 85.231 5.18843 84.5136 5.18843Z" fill="#020202"></path>
</svg>