<?xml version="1.0" encoding="UTF-8" standalone="no"?>
<!DOCTYPE svg PUBLIC "-//W3C//DTD SVG 1.1//EN"
 "http://www.w3.org/Graphics/SVG/1.1/DTD/svg11.dtd">
<!-- Generated by graphviz version 2.47.0 (20210316.0004)
 -->
<!-- Title: dependencies Pages: 1 -->
<svg width="621pt" height="284pt"
 viewBox="0.00 0.00 621.00 284.00" xmlns="http://www.w3.org/2000/svg" xmlns:xlink="http://www.w3.org/1999/xlink">
<g id="graph0" class="graph" transform="scale(1 1) rotate(0) translate(4 280)">
<title>dependencies</title>
<polygon fill="white" stroke="transparent" points="-4,4 -4,-280 617,-280 617,4 -4,4"/>
<text text-anchor="start" x="285.51" y="-42.4" font-family="Times-12" font-weight="bold" font-size="14.00">Legend</text>
<polygon fill="#ffffb3" stroke="transparent" points="72.5,-10 72.5,-30 92.5,-30 92.5,-10 72.5,-10"/>
<text text-anchor="start" x="96.13" y="-15.4" font-family="Times-12" font-size="14.00"> &#160;Declarations</text>
<polygon fill="#8dd3c7" stroke="transparent" points="185.5,-10 185.5,-30 205.5,-30 205.5,-10 185.5,-10"/>
<text text-anchor="start" x="209.23" y="-15.4" font-family="Times-12" font-size="14.00"> &#160;Module</text>
<polygon fill="#80b1d3" stroke="transparent" points="271.5,-10 271.5,-30 291.5,-30 291.5,-10 271.5,-10"/>
<text text-anchor="start" x="295.28" y="-15.4" font-family="Times-12" font-size="14.00"> &#160;Bootstrap</text>
<polygon fill="#fdb462" stroke="transparent" points="368.5,-10 368.5,-30 388.5,-30 388.5,-10 368.5,-10"/>
<text text-anchor="start" x="392.17" y="-15.4" font-family="Times-12" font-size="14.00"> &#160;Providers</text>
<polygon fill="#fb8072" stroke="transparent" points="464.5,-10 464.5,-30 484.5,-30 484.5,-10 464.5,-10"/>
<text text-anchor="start" x="488.23" y="-15.4" font-family="Times-12" font-size="14.00"> &#160;Exports</text>
<g id="clust1" class="cluster">
<title>cluster_SearchUnlinkedMsisdnsModule</title>
<polygon fill="none" stroke="black" stroke-dasharray="1,5" points="8,-70 8,-268 605,-268 605,-70 8,-70"/>
</g>
<g id="clust4" class="cluster">
<title>cluster_SearchUnlinkedMsisdnsModule_exports</title>
<polygon fill="none" stroke="black" points="98,-208 98,-260 536,-260 536,-208 98,-208"/>
</g>
<g id="clust3" class="cluster">
<title>cluster_SearchUnlinkedMsisdnsModule_imports</title>
<polygon fill="none" stroke="black" points="308,-78 308,-130 597,-130 597,-78 308,-78"/>
</g>
<g id="clust6" class="cluster">
<title>cluster_SearchUnlinkedMsisdnsModule_providers</title>
<polygon fill="none" stroke="black" points="16,-78 16,-130 300,-130 300,-78 16,-78"/>
</g>
<!-- LogsAndJournalsModule -->
<g id="node1" class="node">
<title>LogsAndJournalsModule</title>
<polygon fill="#8dd3c7" stroke="black" points="589.31,-122 586.31,-126 565.31,-126 562.31,-122 430.69,-122 430.69,-86 589.31,-86 589.31,-122"/>
<text text-anchor="middle" x="510" y="-99.8" font-family="Times,serif" font-size="14.00">LogsAndJournalsModule</text>
</g>
<!-- SearchUnlinkedMsisdnsModule -->
<g id="node3" class="node">
<title>SearchUnlinkedMsisdnsModule</title>
<polygon fill="#8dd3c7" stroke="black" points="462.41,-187 459.41,-191 438.41,-191 435.41,-187 265.59,-187 265.59,-151 462.41,-151 462.41,-187"/>
<text text-anchor="middle" x="364" y="-164.8" font-family="Times,serif" font-size="14.00">SearchUnlinkedMsisdnsModule</text>
</g>
<!-- LogsAndJournalsModule&#45;&gt;SearchUnlinkedMsisdnsModule -->
<g id="edge1" class="edge">
<title>LogsAndJournalsModule&#45;&gt;SearchUnlinkedMsisdnsModule</title>
<path fill="none" stroke="black" d="M446.52,-122.11C446.52,-122.11 446.52,-140.99 446.52,-140.99"/>
<polygon fill="black" stroke="black" points="443.02,-140.99 446.52,-150.99 450.02,-140.99 443.02,-140.99"/>
</g>
<!-- RabbitModule -->
<g id="node2" class="node">
<title>RabbitModule</title>
<polygon fill="#8dd3c7" stroke="black" points="412.38,-122 409.38,-126 388.38,-126 385.38,-122 315.62,-122 315.62,-86 412.38,-86 412.38,-122"/>
<text text-anchor="middle" x="364" y="-99.8" font-family="Times,serif" font-size="14.00">RabbitModule</text>
</g>
<!-- RabbitModule&#45;&gt;SearchUnlinkedMsisdnsModule -->
<g id="edge2" class="edge">
<title>RabbitModule&#45;&gt;SearchUnlinkedMsisdnsModule</title>
<path fill="none" stroke="black" d="M364,-122.11C364,-122.11 364,-140.99 364,-140.99"/>
<polygon fill="black" stroke="black" points="360.5,-140.99 364,-150.99 367.5,-140.99 360.5,-140.99"/>
</g>
<!-- SearchUnlinkedMsisdnsResolver  -->
<g id="node4" class="node">
<title>SearchUnlinkedMsisdnsResolver </title>
<polygon fill="#fb8072" stroke="black" points="528.12,-252 321.88,-252 321.88,-216 528.12,-216 528.12,-252"/>
<text text-anchor="middle" x="425" y="-229.8" font-family="Times,serif" font-size="14.00">SearchUnlinkedMsisdnsResolver </text>
</g>
<!-- SearchUnlinkedMsisdnsModule&#45;&gt;SearchUnlinkedMsisdnsResolver  -->
<g id="edge3" class="edge">
<title>SearchUnlinkedMsisdnsModule&#45;&gt;SearchUnlinkedMsisdnsResolver </title>
<path fill="none" stroke="black" stroke-dasharray="5,2" d="M392.07,-187.11C392.07,-187.11 392.07,-205.99 392.07,-205.99"/>
<polygon fill="black" stroke="black" points="388.57,-205.99 392.07,-215.99 395.57,-205.99 388.57,-205.99"/>
</g>
<!-- SearchUnlinkedMsisdnsService  -->
<g id="node5" class="node">
<title>SearchUnlinkedMsisdnsService </title>
<polygon fill="#fb8072" stroke="black" points="304.34,-252 105.66,-252 105.66,-216 304.34,-216 304.34,-252"/>
<text text-anchor="middle" x="205" y="-229.8" font-family="Times,serif" font-size="14.00">SearchUnlinkedMsisdnsService </text>
</g>
<!-- SearchUnlinkedMsisdnsModule&#45;&gt;SearchUnlinkedMsisdnsService  -->
<g id="edge4" class="edge">
<title>SearchUnlinkedMsisdnsModule&#45;&gt;SearchUnlinkedMsisdnsService </title>
<path fill="none" stroke="black" stroke-dasharray="5,2" d="M284.98,-187.11C284.98,-187.11 284.98,-205.99 284.98,-205.99"/>
<polygon fill="black" stroke="black" points="281.48,-205.99 284.98,-215.99 288.48,-205.99 281.48,-205.99"/>
</g>
<!-- SearchUnlinkedMsisdnsService -->
<g id="node6" class="node">
<title>SearchUnlinkedMsisdnsService</title>
<ellipse fill="#fdb462" stroke="black" cx="158" cy="-104" rx="134.29" ry="18"/>
<text text-anchor="middle" x="158" y="-99.8" font-family="Times,serif" font-size="14.00">SearchUnlinkedMsisdnsService</text>
</g>
<!-- SearchUnlinkedMsisdnsService&#45;&gt;SearchUnlinkedMsisdnsModule -->
<g id="edge5" class="edge">
<title>SearchUnlinkedMsisdnsService&#45;&gt;SearchUnlinkedMsisdnsModule</title>
<path fill="none" stroke="black" d="M279.1,-111.97C279.1,-111.97 279.1,-140.87 279.1,-140.87"/>
<polygon fill="black" stroke="black" points="275.6,-140.87 279.1,-150.87 282.6,-140.87 275.6,-140.87"/>
</g>
</g>
</svg>
