<?xml version="1.0" encoding="UTF-8" standalone="no"?>
<!DOCTYPE svg PUBLIC "-//W3C//DTD SVG 1.1//EN"
 "http://www.w3.org/Graphics/SVG/1.1/DTD/svg11.dtd">
<!-- Generated by graphviz version 2.47.0 (20210316.0004)
 -->
<!-- Title: dependencies Pages: 1 -->
<svg width="538pt" height="211pt"
 viewBox="0.00 0.00 538.00 211.00" xmlns="http://www.w3.org/2000/svg" xmlns:xlink="http://www.w3.org/1999/xlink">
<g id="graph0" class="graph" transform="scale(1 1) rotate(0) translate(4 207)">
<title>dependencies</title>
<polygon fill="white" stroke="transparent" points="-4,4 -4,-207 534,-207 534,4 -4,4"/>
<text text-anchor="start" x="244.01" y="-42.4" font-family="Times-12" font-weight="bold" font-size="14.00">Legend</text>
<polygon fill="#ffffb3" stroke="transparent" points="31,-10 31,-30 51,-30 51,-10 31,-10"/>
<text text-anchor="start" x="54.63" y="-15.4" font-family="Times-12" font-size="14.00"> &#160;Declarations</text>
<polygon fill="#8dd3c7" stroke="transparent" points="144,-10 144,-30 164,-30 164,-10 144,-10"/>
<text text-anchor="start" x="167.73" y="-15.4" font-family="Times-12" font-size="14.00"> &#160;Module</text>
<polygon fill="#80b1d3" stroke="transparent" points="230,-10 230,-30 250,-30 250,-10 230,-10"/>
<text text-anchor="start" x="253.78" y="-15.4" font-family="Times-12" font-size="14.00"> &#160;Bootstrap</text>
<polygon fill="#fdb462" stroke="transparent" points="327,-10 327,-30 347,-30 347,-10 327,-10"/>
<text text-anchor="start" x="350.67" y="-15.4" font-family="Times-12" font-size="14.00"> &#160;Providers</text>
<polygon fill="#fb8072" stroke="transparent" points="423,-10 423,-30 443,-30 443,-10 423,-10"/>
<text text-anchor="start" x="446.73" y="-15.4" font-family="Times-12" font-size="14.00"> &#160;Exports</text>
<g id="clust1" class="cluster">
<title>cluster_DlModule</title>
<polygon fill="none" stroke="black" stroke-dasharray="1,5" points="8,-70 8,-195 522,-195 522,-70 8,-70"/>
</g>
<g id="clust6" class="cluster">
<title>cluster_DlModule_providers</title>
<polygon fill="none" stroke="black" points="392,-78 392,-130 514,-130 514,-78 392,-78"/>
</g>
<g id="clust3" class="cluster">
<title>cluster_DlModule_imports</title>
<polygon fill="none" stroke="black" points="16,-78 16,-130 384,-130 384,-78 16,-78"/>
</g>
<!-- ApimeIntegrationModule -->
<g id="node1" class="node">
<title>ApimeIntegrationModule</title>
<polygon fill="#8dd3c7" stroke="black" points="375.57,-122 372.57,-126 351.57,-126 348.57,-122 216.43,-122 216.43,-86 375.57,-86 375.57,-122"/>
<text text-anchor="middle" x="296" y="-99.8" font-family="Times,serif" font-size="14.00">ApimeIntegrationModule</text>
</g>
<!-- DlModule -->
<g id="node3" class="node">
<title>DlModule</title>
<polygon fill="#8dd3c7" stroke="black" points="332.55,-187 329.55,-191 308.55,-191 305.55,-187 259.45,-187 259.45,-151 332.55,-151 332.55,-187"/>
<text text-anchor="middle" x="296" y="-164.8" font-family="Times,serif" font-size="14.00">DlModule</text>
</g>
<!-- ApimeIntegrationModule&#45;&gt;DlModule -->
<g id="edge1" class="edge">
<title>ApimeIntegrationModule&#45;&gt;DlModule</title>
<path fill="none" stroke="black" d="M296,-122.11C296,-122.11 296,-140.99 296,-140.99"/>
<polygon fill="black" stroke="black" points="292.5,-140.99 296,-150.99 299.5,-140.99 292.5,-140.99"/>
</g>
<!-- KeycloakIntegrationModule -->
<g id="node2" class="node">
<title>KeycloakIntegrationModule</title>
<polygon fill="#8dd3c7" stroke="black" points="198.11,-122 195.11,-126 174.11,-126 171.11,-122 23.89,-122 23.89,-86 198.11,-86 198.11,-122"/>
<text text-anchor="middle" x="111" y="-99.8" font-family="Times,serif" font-size="14.00">KeycloakIntegrationModule</text>
</g>
<!-- KeycloakIntegrationModule&#45;&gt;DlModule -->
<g id="edge2" class="edge">
<title>KeycloakIntegrationModule&#45;&gt;DlModule</title>
<path fill="none" stroke="black" d="M111,-122.11C111,-141.34 111,-169 111,-169 111,-169 249.45,-169 249.45,-169"/>
<polygon fill="black" stroke="black" points="249.45,-172.5 259.45,-169 249.45,-165.5 249.45,-172.5"/>
</g>
<!-- DLService -->
<g id="node4" class="node">
<title>DLService</title>
<ellipse fill="#fdb462" stroke="black" cx="453" cy="-104" rx="52.73" ry="18"/>
<text text-anchor="middle" x="453" y="-99.8" font-family="Times,serif" font-size="14.00">DLService</text>
</g>
<!-- DLService&#45;&gt;DlModule -->
<g id="edge3" class="edge">
<title>DLService&#45;&gt;DlModule</title>
<path fill="none" stroke="black" d="M453,-122.11C453,-141.34 453,-169 453,-169 453,-169 342.81,-169 342.81,-169"/>
<polygon fill="black" stroke="black" points="342.81,-165.5 332.81,-169 342.81,-172.5 342.81,-165.5"/>
</g>
</g>
</svg>
