<?xml version="1.0" encoding="UTF-8" standalone="no"?>
<!DOCTYPE svg PUBLIC "-//W3C//DTD SVG 1.1//EN"
 "http://www.w3.org/Graphics/SVG/1.1/DTD/svg11.dtd">
<!-- Generated by graphviz version 2.47.0 (20210316.0004)
 -->
<!-- Title: dependencies Pages: 1 -->
<svg width="3767pt" height="450pt"
 viewBox="0.00 0.00 3767.00 450.00" xmlns="http://www.w3.org/2000/svg" xmlns:xlink="http://www.w3.org/1999/xlink">
<g id="graph0" class="graph" transform="scale(1 1) rotate(0) translate(4 446)">
<title>dependencies</title>
<polygon fill="white" stroke="transparent" points="-4,4 -4,-446 3763,-446 3763,4 -4,4"/>
<text text-anchor="start" x="1858.51" y="-42.4" font-family="Times-12" font-weight="bold" font-size="14.00">Legend</text>
<polygon fill="#ffffb3" stroke="transparent" points="1645.5,-10 1645.5,-30 1665.5,-30 1665.5,-10 1645.5,-10"/>
<text text-anchor="start" x="1669.13" y="-15.4" font-family="Times-12" font-size="14.00"> &#160;Declarations</text>
<polygon fill="#8dd3c7" stroke="transparent" points="1758.5,-10 1758.5,-30 1778.5,-30 1778.5,-10 1758.5,-10"/>
<text text-anchor="start" x="1782.23" y="-15.4" font-family="Times-12" font-size="14.00"> &#160;Module</text>
<polygon fill="#80b1d3" stroke="transparent" points="1844.5,-10 1844.5,-30 1864.5,-30 1864.5,-10 1844.5,-10"/>
<text text-anchor="start" x="1868.28" y="-15.4" font-family="Times-12" font-size="14.00"> &#160;Bootstrap</text>
<polygon fill="#fdb462" stroke="transparent" points="1941.5,-10 1941.5,-30 1961.5,-30 1961.5,-10 1941.5,-10"/>
<text text-anchor="start" x="1965.17" y="-15.4" font-family="Times-12" font-size="14.00"> &#160;Providers</text>
<polygon fill="#fb8072" stroke="transparent" points="2037.5,-10 2037.5,-30 2057.5,-30 2057.5,-10 2037.5,-10"/>
<text text-anchor="start" x="2061.23" y="-15.4" font-family="Times-12" font-size="14.00"> &#160;Exports</text>
<g id="clust1" class="cluster">
<title>cluster_ApimeIntegrationModule</title>
<polygon fill="none" stroke="black" stroke-dasharray="1,5" points="830,-70 830,-282 1354,-282 1354,-70 830,-70"/>
</g>
<g id="clust4" class="cluster">
<title>cluster_ApimeIntegrationModule_exports</title>
<polygon fill="none" stroke="black" points="838,-222 838,-274 1346,-274 1346,-222 838,-222"/>
</g>
<g id="clust6" class="cluster">
<title>cluster_ApimeIntegrationModule_providers</title>
<polygon fill="none" stroke="black" points="873,-78 873,-130 1310,-130 1310,-78 873,-78"/>
</g>
<g id="clust7" class="cluster">
<title>cluster_AuthModule</title>
<polygon fill="none" stroke="black" stroke-dasharray="1,5" points="3209,-214 3209,-434 3359,-434 3359,-214 3209,-214"/>
</g>
<g id="clust10" class="cluster">
<title>cluster_AuthModule_exports</title>
<polygon fill="none" stroke="black" points="3224,-374 3224,-426 3330,-426 3330,-374 3224,-374"/>
</g>
<g id="clust12" class="cluster">
<title>cluster_AuthModule_providers</title>
<polygon fill="none" stroke="black" points="3217,-222 3217,-274 3351,-274 3351,-222 3217,-222"/>
</g>
<g id="clust13" class="cluster">
<title>cluster_ClientModule</title>
<polygon fill="none" stroke="black" stroke-dasharray="1,5" points="1382,-146 1382,-434 1806,-434 1806,-146 1382,-146"/>
</g>
<g id="clust15" class="cluster">
<title>cluster_ClientModule_imports</title>
<polygon fill="none" stroke="black" points="1554,-154 1554,-274 1798,-274 1798,-154 1554,-154"/>
</g>
<g id="clust16" class="cluster">
<title>cluster_ClientModule_exports</title>
<polygon fill="none" stroke="black" points="1430,-374 1430,-426 1664,-426 1664,-374 1430,-374"/>
</g>
<g id="clust18" class="cluster">
<title>cluster_ClientModule_providers</title>
<polygon fill="none" stroke="black" points="1402,-222 1402,-274 1546,-274 1546,-222 1402,-222"/>
</g>
<g id="clust19" class="cluster">
<title>cluster_CoreModule</title>
<polygon fill="none" stroke="black" stroke-dasharray="1,5" points="2603,-222 2603,-274 2705,-274 2705,-222 2603,-222"/>
</g>
<g id="clust25" class="cluster">
<title>cluster_DlModule</title>
<polygon fill="none" stroke="black" stroke-dasharray="1,5" points="486,-146 486,-274 822,-274 822,-146 486,-146"/>
</g>
<g id="clust27" class="cluster">
<title>cluster_DlModule_imports</title>
<polygon fill="none" stroke="black" points="494,-154 494,-206 684,-206 684,-154 494,-154"/>
</g>
<g id="clust30" class="cluster">
<title>cluster_DlModule_providers</title>
<polygon fill="none" stroke="black" points="692,-154 692,-206 814,-206 814,-154 692,-154"/>
</g>
<g id="clust31" class="cluster">
<title>cluster_GqlModule</title>
<polygon fill="none" stroke="black" stroke-dasharray="1,5" points="2568,-290 2568,-426 3090,-426 3090,-290 2568,-290"/>
</g>
<g id="clust33" class="cluster">
<title>cluster_GqlModule_imports</title>
<polygon fill="none" stroke="black" points="2576,-298 2576,-350 2944,-350 2944,-298 2576,-298"/>
</g>
<g id="clust36" class="cluster">
<title>cluster_GqlModule_providers</title>
<polygon fill="none" stroke="black" points="2952,-298 2952,-350 3082,-350 3082,-298 2952,-298"/>
</g>
<g id="clust37" class="cluster">
<title>cluster_JournalizatingModule</title>
<polygon fill="none" stroke="black" stroke-dasharray="1,5" points="3367,-70 3367,-282 3589,-282 3589,-70 3367,-70"/>
</g>
<g id="clust40" class="cluster">
<title>cluster_JournalizatingModule_exports</title>
<polygon fill="none" stroke="black" points="3412,-222 3412,-274 3568,-274 3568,-222 3412,-222"/>
</g>
<g id="clust42" class="cluster">
<title>cluster_JournalizatingModule_providers</title>
<polygon fill="none" stroke="black" points="3375,-78 3375,-130 3581,-130 3581,-78 3375,-78"/>
</g>
<g id="clust43" class="cluster">
<title>cluster_JournalizationModule</title>
<polygon fill="none" stroke="black" stroke-dasharray="1,5" points="3597,-222 3597,-274 3751,-274 3751,-222 3597,-222"/>
</g>
<g id="clust49" class="cluster">
<title>cluster_KeycloakIntegrationModule</title>
<polygon fill="none" stroke="black" stroke-dasharray="1,5" points="8,-214 8,-282 478,-282 478,-214 8,-214"/>
</g>
<g id="clust52" class="cluster">
<title>cluster_KeycloakIntegrationModule_exports</title>
<polygon fill="none" stroke="black" points="278,-222 278,-274 470,-274 470,-222 278,-222"/>
</g>
<g id="clust54" class="cluster">
<title>cluster_KeycloakIntegrationModule_providers</title>
<polygon fill="none" stroke="black" points="16,-222 16,-274 270,-274 270,-222 16,-222"/>
</g>
<g id="clust55" class="cluster">
<title>cluster_KeycloakModule</title>
<polygon fill="none" stroke="black" stroke-dasharray="1,5" points="2713,-214 2713,-282 3201,-282 3201,-214 2713,-214"/>
</g>
<g id="clust58" class="cluster">
<title>cluster_KeycloakModule_exports</title>
<polygon fill="none" stroke="black" points="2899,-222 2899,-274 3193,-274 3193,-222 2899,-222"/>
</g>
<g id="clust60" class="cluster">
<title>cluster_KeycloakModule_providers</title>
<polygon fill="none" stroke="black" points="2721,-222 2721,-274 2891,-274 2891,-222 2721,-222"/>
</g>
<g id="clust61" class="cluster">
<title>cluster_LogsAndJournalsModule</title>
<polygon fill="none" stroke="black" stroke-dasharray="1,5" points="1814,-290 1814,-358 2540,-358 2540,-290 1814,-290"/>
</g>
<g id="clust64" class="cluster">
<title>cluster_LogsAndJournalsModule_exports</title>
<polygon fill="none" stroke="black" points="2228,-298 2228,-350 2532,-350 2532,-298 2228,-298"/>
</g>
<g id="clust66" class="cluster">
<title>cluster_LogsAndJournalsModule_providers</title>
<polygon fill="none" stroke="black" points="1822,-298 1822,-350 2220,-350 2220,-298 1822,-298"/>
</g>
<g id="clust73" class="cluster">
<title>cluster_RabbitModule</title>
<polygon fill="none" stroke="black" stroke-dasharray="1,5" points="1362,-70 1362,-138 1853,-138 1853,-70 1362,-70"/>
</g>
<g id="clust76" class="cluster">
<title>cluster_RabbitModule_exports</title>
<polygon fill="none" stroke="black" points="1707,-78 1707,-130 1845,-130 1845,-78 1707,-78"/>
</g>
<g id="clust78" class="cluster">
<title>cluster_RabbitModule_providers</title>
<polygon fill="none" stroke="black" points="1370,-78 1370,-130 1699,-130 1699,-78 1370,-78"/>
</g>
<g id="clust79" class="cluster">
<title>cluster_SearchClientsModule</title>
<polygon fill="none" stroke="black" stroke-dasharray="1,5" points="1836,-214 1836,-282 2565,-282 2565,-214 1836,-214"/>
</g>
<g id="clust82" class="cluster">
<title>cluster_SearchClientsModule_exports</title>
<polygon fill="none" stroke="black" points="2251,-222 2251,-274 2557,-274 2557,-222 2251,-222"/>
</g>
<g id="clust84" class="cluster">
<title>cluster_SearchClientsModule_providers</title>
<polygon fill="none" stroke="black" points="1844,-222 1844,-274 2243,-274 2243,-222 1844,-222"/>
</g>
<g id="clust85" class="cluster">
<title>cluster_SearchUnlinkedMsisdnsModule</title>
<polygon fill="none" stroke="black" stroke-dasharray="1,5" points="1814,-366 1814,-434 2560,-434 2560,-366 1814,-366"/>
</g>
<g id="clust88" class="cluster">
<title>cluster_SearchUnlinkedMsisdnsModule_exports</title>
<polygon fill="none" stroke="black" points="2114,-374 2114,-426 2552,-426 2552,-374 2114,-374"/>
</g>
<g id="clust90" class="cluster">
<title>cluster_SearchUnlinkedMsisdnsModule_providers</title>
<polygon fill="none" stroke="black" points="1822,-374 1822,-426 2106,-426 2106,-374 1822,-374"/>
</g>
<!-- ApimeConnectionGuard  -->
<g id="node1" class="node">
<title>ApimeConnectionGuard </title>
<polygon fill="#fb8072" stroke="black" points="1337.63,-266 1180.37,-266 1180.37,-230 1337.63,-230 1337.63,-266"/>
<text text-anchor="middle" x="1259" y="-243.8" font-family="Times,serif" font-size="14.00">ApimeConnectionGuard </text>
</g>
<!-- ApimeIntegrationService  -->
<g id="node2" class="node">
<title>ApimeIntegrationService </title>
<polygon fill="#fb8072" stroke="black" points="1162.5,-266 1001.5,-266 1001.5,-230 1162.5,-230 1162.5,-266"/>
<text text-anchor="middle" x="1082" y="-243.8" font-family="Times,serif" font-size="14.00">ApimeIntegrationService </text>
</g>
<!-- SearchApimeService  -->
<g id="node3" class="node">
<title>SearchApimeService </title>
<polygon fill="#fb8072" stroke="black" points="983.67,-266 846.33,-266 846.33,-230 983.67,-230 983.67,-266"/>
<text text-anchor="middle" x="915" y="-243.8" font-family="Times,serif" font-size="14.00">SearchApimeService </text>
</g>
<!-- ApimeIntegrationModule -->
<g id="node4" class="node">
<title>ApimeIntegrationModule</title>
<polygon fill="#8dd3c7" stroke="black" points="1107.57,-198 1104.57,-202 1083.57,-202 1080.57,-198 948.43,-198 948.43,-162 1107.57,-162 1107.57,-198"/>
<text text-anchor="middle" x="1028" y="-175.8" font-family="Times,serif" font-size="14.00">ApimeIntegrationModule</text>
</g>
<!-- ApimeIntegrationModule&#45;&gt;ApimeConnectionGuard  -->
<g id="edge1" class="edge">
<title>ApimeIntegrationModule&#45;&gt;ApimeConnectionGuard </title>
<path fill="none" stroke="black" stroke-dasharray="5,2" d="M1107.63,-174C1168.14,-174 1241.04,-174 1241.04,-174 1241.04,-174 1241.04,-219.71 1241.04,-219.71"/>
<polygon fill="black" stroke="black" points="1237.54,-219.71 1241.04,-229.71 1244.54,-219.71 1237.54,-219.71"/>
</g>
<!-- ApimeIntegrationModule&#45;&gt;ApimeIntegrationService  -->
<g id="edge2" class="edge">
<title>ApimeIntegrationModule&#45;&gt;ApimeIntegrationService </title>
<path fill="none" stroke="black" stroke-dasharray="5,2" d="M1054.52,-198.22C1054.52,-198.22 1054.52,-219.73 1054.52,-219.73"/>
<polygon fill="black" stroke="black" points="1051.02,-219.73 1054.52,-229.73 1058.02,-219.73 1051.02,-219.73"/>
</g>
<!-- ApimeIntegrationModule&#45;&gt;SearchApimeService  -->
<g id="edge3" class="edge">
<title>ApimeIntegrationModule&#45;&gt;SearchApimeService </title>
<path fill="none" stroke="black" stroke-dasharray="5,2" d="M966.15,-198.22C966.15,-198.22 966.15,-219.73 966.15,-219.73"/>
<polygon fill="black" stroke="black" points="962.65,-219.73 966.15,-229.73 969.65,-219.73 962.65,-219.73"/>
</g>
<!-- DlModule -->
<g id="node19" class="node">
<title>DlModule</title>
<polygon fill="#8dd3c7" stroke="black" points="789.55,-266 786.55,-270 765.55,-270 762.55,-266 716.45,-266 716.45,-230 789.55,-230 789.55,-266"/>
<text text-anchor="middle" x="753" y="-243.8" font-family="Times,serif" font-size="14.00">DlModule</text>
</g>
<!-- ApimeIntegrationModule&#45;&gt;DlModule -->
<g id="edge16" class="edge">
<title>ApimeIntegrationModule&#45;&gt;DlModule</title>
<path fill="none" stroke="black" d="M948.46,-180C891.94,-180 826.01,-180 826.01,-180 826.01,-180 826.01,-248 826.01,-248 826.01,-248 799.94,-248 799.94,-248"/>
<polygon fill="black" stroke="black" points="799.94,-244.5 789.94,-248 799.94,-251.5 799.94,-244.5"/>
</g>
<!-- ApimeIntegrationService -->
<g id="node5" class="node">
<title>ApimeIntegrationService</title>
<ellipse fill="#fdb462" stroke="black" cx="1193" cy="-104" rx="108.78" ry="18"/>
<text text-anchor="middle" x="1193" y="-99.8" font-family="Times,serif" font-size="14.00">ApimeIntegrationService</text>
</g>
<!-- ApimeIntegrationService&#45;&gt;ApimeIntegrationModule -->
<g id="edge4" class="edge">
<title>ApimeIntegrationService&#45;&gt;ApimeIntegrationModule</title>
<path fill="none" stroke="black" d="M1095.95,-112.13C1095.95,-112.13 1095.95,-151.88 1095.95,-151.88"/>
<polygon fill="black" stroke="black" points="1092.45,-151.88 1095.95,-161.88 1099.45,-151.88 1092.45,-151.88"/>
</g>
<!-- SearchApimeService -->
<g id="node6" class="node">
<title>SearchApimeService</title>
<ellipse fill="#fdb462" stroke="black" cx="974" cy="-104" rx="92.59" ry="18"/>
<text text-anchor="middle" x="974" y="-99.8" font-family="Times,serif" font-size="14.00">SearchApimeService</text>
</g>
<!-- SearchApimeService&#45;&gt;ApimeIntegrationModule -->
<g id="edge5" class="edge">
<title>SearchApimeService&#45;&gt;ApimeIntegrationModule</title>
<path fill="none" stroke="black" d="M1007.5,-120.87C1007.5,-120.87 1007.5,-151.85 1007.5,-151.85"/>
<polygon fill="black" stroke="black" points="1004,-151.85 1007.5,-161.85 1011,-151.85 1004,-151.85"/>
</g>
<!-- AuthService  -->
<g id="node7" class="node">
<title>AuthService </title>
<polygon fill="#fb8072" stroke="black" points="3321.98,-418 3232.02,-418 3232.02,-382 3321.98,-382 3321.98,-418"/>
<text text-anchor="middle" x="3277" y="-395.8" font-family="Times,serif" font-size="14.00">AuthService </text>
</g>
<!-- AuthModule -->
<g id="node8" class="node">
<title>AuthModule</title>
<polygon fill="#8dd3c7" stroke="black" points="3320.55,-342 3317.55,-346 3296.55,-346 3293.55,-342 3233.45,-342 3233.45,-306 3320.55,-306 3320.55,-342"/>
<text text-anchor="middle" x="3277" y="-319.8" font-family="Times,serif" font-size="14.00">AuthModule</text>
</g>
<!-- AuthModule&#45;&gt;AuthService  -->
<g id="edge6" class="edge">
<title>AuthModule&#45;&gt;AuthService </title>
<path fill="none" stroke="black" stroke-dasharray="5,2" d="M3277,-342.01C3277,-342.01 3277,-371.85 3277,-371.85"/>
<polygon fill="black" stroke="black" points="3273.5,-371.85 3277,-381.85 3280.5,-371.85 3273.5,-371.85"/>
</g>
<!-- GqlModule -->
<g id="node23" class="node">
<title>GqlModule</title>
<polygon fill="#8dd3c7" stroke="black" points="2982.05,-418 2979.05,-422 2958.05,-422 2955.05,-418 2901.95,-418 2901.95,-382 2982.05,-382 2982.05,-418"/>
<text text-anchor="middle" x="2942" y="-395.8" font-family="Times,serif" font-size="14.00">GqlModule</text>
</g>
<!-- AuthModule&#45;&gt;GqlModule -->
<g id="edge19" class="edge">
<title>AuthModule&#45;&gt;GqlModule</title>
<path fill="none" stroke="black" d="M3233.31,-324C3230.33,-324 3228.48,-324 3228.48,-324 3228.48,-324 3228.48,-400 3228.48,-400 3228.48,-400 2992.14,-400 2992.14,-400"/>
<polygon fill="black" stroke="black" points="2992.14,-396.5 2982.14,-400 2992.14,-403.5 2992.14,-396.5"/>
</g>
<!-- AuthService -->
<g id="node9" class="node">
<title>AuthService</title>
<ellipse fill="#fdb462" stroke="black" cx="3284" cy="-248" rx="59.11" ry="18"/>
<text text-anchor="middle" x="3284" y="-243.8" font-family="Times,serif" font-size="14.00">AuthService</text>
</g>
<!-- AuthService&#45;&gt;AuthModule -->
<g id="edge7" class="edge">
<title>AuthService&#45;&gt;AuthModule</title>
<path fill="none" stroke="black" d="M3277,-266.01C3277,-266.01 3277,-295.85 3277,-295.85"/>
<polygon fill="black" stroke="black" points="3273.5,-295.85 3277,-305.85 3280.5,-295.85 3273.5,-295.85"/>
</g>
<!-- KeycloakModule -->
<g id="node10" class="node">
<title>KeycloakModule</title>
<polygon fill="#8dd3c7" stroke="black" points="1789.69,-198 1786.69,-202 1765.69,-202 1762.69,-198 1676.31,-198 1676.31,-162 1789.69,-162 1789.69,-198"/>
<text text-anchor="middle" x="1733" y="-175.8" font-family="Times,serif" font-size="14.00">KeycloakModule</text>
</g>
<!-- ClientModule -->
<g id="node13" class="node">
<title>ClientModule</title>
<polygon fill="#8dd3c7" stroke="black" points="1575.77,-342 1572.77,-346 1551.77,-346 1548.77,-342 1482.23,-342 1482.23,-306 1575.77,-306 1575.77,-342"/>
<text text-anchor="middle" x="1529" y="-319.8" font-family="Times,serif" font-size="14.00">ClientModule</text>
</g>
<!-- KeycloakModule&#45;&gt;ClientModule -->
<g id="edge8" class="edge">
<title>KeycloakModule&#45;&gt;ClientModule</title>
<path fill="none" stroke="black" d="M1733,-198.06C1733,-209.44 1733,-222 1733,-222 1733,-222 1568.72,-222 1568.72,-222 1568.72,-222 1568.72,-295.76 1568.72,-295.76"/>
<polygon fill="black" stroke="black" points="1565.22,-295.76 1568.72,-305.76 1572.22,-295.76 1565.22,-295.76"/>
</g>
<!-- CoreModule -->
<g id="node17" class="node">
<title>CoreModule</title>
<polygon fill="#8dd3c7" stroke="black" points="2697.26,-266 2694.26,-270 2673.26,-270 2670.26,-266 2610.74,-266 2610.74,-230 2697.26,-230 2697.26,-266"/>
<text text-anchor="middle" x="2654" y="-243.8" font-family="Times,serif" font-size="14.00">CoreModule</text>
</g>
<!-- KeycloakModule&#45;&gt;CoreModule -->
<g id="edge14" class="edge">
<title>KeycloakModule&#45;&gt;CoreModule</title>
<path fill="none" stroke="black" d="M1789.76,-191C1992.43,-191 2668.46,-191 2668.46,-191 2668.46,-191 2668.46,-219.96 2668.46,-219.96"/>
<polygon fill="black" stroke="black" points="2664.96,-219.96 2668.46,-229.96 2671.96,-219.96 2664.96,-219.96"/>
</g>
<!-- KeycloakService  -->
<g id="node31" class="node">
<title>KeycloakService </title>
<polygon fill="#fb8072" stroke="black" points="3022.62,-266 2907.38,-266 2907.38,-230 3022.62,-230 3022.62,-266"/>
<text text-anchor="middle" x="2965" y="-243.8" font-family="Times,serif" font-size="14.00">KeycloakService </text>
</g>
<!-- KeycloakModule&#45;&gt;KeycloakService  -->
<g id="edge30" class="edge">
<title>KeycloakModule&#45;&gt;KeycloakService </title>
<path fill="none" stroke="black" stroke-dasharray="5,2" d="M1789.95,-177C2032.25,-177 2965,-177 2965,-177 2965,-177 2965,-219.72 2965,-219.72"/>
<polygon fill="black" stroke="black" points="2961.5,-219.72 2965,-229.72 2968.5,-219.72 2961.5,-219.72"/>
</g>
<!-- KeycloakTokenGuard  -->
<g id="node32" class="node">
<title>KeycloakTokenGuard </title>
<polygon fill="#fb8072" stroke="black" points="3184.89,-266 3041.11,-266 3041.11,-230 3184.89,-230 3184.89,-266"/>
<text text-anchor="middle" x="3113" y="-243.8" font-family="Times,serif" font-size="14.00">KeycloakTokenGuard </text>
</g>
<!-- KeycloakModule&#45;&gt;KeycloakTokenGuard  -->
<g id="edge31" class="edge">
<title>KeycloakModule&#45;&gt;KeycloakTokenGuard </title>
<path fill="none" stroke="black" stroke-dasharray="5,2" d="M1789.67,-170C2049.35,-170 3113,-170 3113,-170 3113,-170 3113,-219.91 3113,-219.91"/>
<polygon fill="black" stroke="black" points="3109.5,-219.91 3113,-229.91 3116.5,-219.91 3109.5,-219.91"/>
</g>
<!-- LogsAndJournalsModule -->
<g id="node11" class="node">
<title>LogsAndJournalsModule</title>
<polygon fill="#8dd3c7" stroke="black" points="1790.31,-266 1787.31,-270 1766.31,-270 1763.31,-266 1631.69,-266 1631.69,-230 1790.31,-230 1790.31,-266"/>
<text text-anchor="middle" x="1711" y="-243.8" font-family="Times,serif" font-size="14.00">LogsAndJournalsModule</text>
</g>
<!-- LogsAndJournalsModule&#45;&gt;ClientModule -->
<g id="edge9" class="edge">
<title>LogsAndJournalsModule&#45;&gt;ClientModule</title>
<path fill="none" stroke="black" d="M1631.53,-248C1600.54,-248 1572.3,-248 1572.3,-248 1572.3,-248 1572.3,-295.99 1572.3,-295.99"/>
<polygon fill="black" stroke="black" points="1568.8,-295.99 1572.3,-305.99 1575.8,-295.99 1568.8,-295.99"/>
</g>
<!-- SearchClientsModule -->
<g id="node21" class="node">
<title>SearchClientsModule</title>
<polygon fill="#8dd3c7" stroke="black" points="2935.8,-342 2932.8,-346 2911.8,-346 2908.8,-342 2798.2,-342 2798.2,-306 2935.8,-306 2935.8,-342"/>
<text text-anchor="middle" x="2867" y="-319.8" font-family="Times,serif" font-size="14.00">SearchClientsModule</text>
</g>
<!-- LogsAndJournalsModule&#45;&gt;SearchClientsModule -->
<g id="edge41" class="edge">
<title>LogsAndJournalsModule&#45;&gt;SearchClientsModule</title>
<path fill="none" stroke="black" d="M1751.78,-266.11C1751.78,-275.9 1751.78,-286 1751.78,-286 1751.78,-286 2822.53,-286 2822.53,-286 2822.53,-286 2822.53,-295.89 2822.53,-295.89"/>
<polygon fill="black" stroke="black" points="2819.03,-295.89 2822.53,-305.89 2826.03,-295.89 2819.03,-295.89"/>
</g>
<!-- SearchUnlinkedMsisdnsModule -->
<g id="node22" class="node">
<title>SearchUnlinkedMsisdnsModule</title>
<polygon fill="#8dd3c7" stroke="black" points="2780.41,-342 2777.41,-346 2756.41,-346 2753.41,-342 2583.59,-342 2583.59,-306 2780.41,-306 2780.41,-342"/>
<text text-anchor="middle" x="2682" y="-319.8" font-family="Times,serif" font-size="14.00">SearchUnlinkedMsisdnsModule</text>
</g>
<!-- LogsAndJournalsModule&#45;&gt;SearchUnlinkedMsisdnsModule -->
<g id="edge47" class="edge">
<title>LogsAndJournalsModule&#45;&gt;SearchUnlinkedMsisdnsModule</title>
<path fill="none" stroke="black" d="M1732.6,-266.04C1732.6,-278.56 1732.6,-293 1732.6,-293 1732.6,-293 2592.74,-293 2592.74,-293 2592.74,-293 2592.74,-295.97 2592.74,-295.97"/>
<polygon fill="black" stroke="black" points="2589.24,-295.97 2592.74,-305.97 2596.24,-295.97 2589.24,-295.97"/>
</g>
<!-- LogsAndJournalsModule&#45;&gt;GqlModule -->
<g id="edge21" class="edge">
<title>LogsAndJournalsModule&#45;&gt;GqlModule</title>
<path fill="none" stroke="black" d="M1675.04,-266.12C1675.04,-295.91 1675.04,-352 1675.04,-352 1675.04,-352 2913.04,-352 2913.04,-352 2913.04,-352 2913.04,-371.85 2913.04,-371.85"/>
<polygon fill="black" stroke="black" points="2909.54,-371.85 2913.04,-381.85 2916.54,-371.85 2909.54,-371.85"/>
</g>
<!-- AppLoggerLoki  -->
<g id="node34" class="node">
<title>AppLoggerLoki </title>
<polygon fill="#fb8072" stroke="black" points="2346.48,-342 2235.52,-342 2235.52,-306 2346.48,-306 2346.48,-342"/>
<text text-anchor="middle" x="2291" y="-319.8" font-family="Times,serif" font-size="14.00">AppLoggerLoki </text>
</g>
<!-- LogsAndJournalsModule&#45;&gt;AppLoggerLoki  -->
<g id="edge34" class="edge">
<title>LogsAndJournalsModule&#45;&gt;AppLoggerLoki </title>
<path fill="none" stroke="black" stroke-dasharray="5,2" d="M1694.22,-266.19C1694.22,-281.18 1694.22,-300 1694.22,-300 1694.22,-300 2247.57,-300 2247.57,-300 2247.57,-300 2247.57,-300.58 2247.57,-300.58"/>
<polygon fill="black" stroke="black" points="2244.07,-295.81 2247.57,-305.81 2251.07,-295.81 2244.07,-295.81"/>
</g>
<!-- LogsAndJournalsService  -->
<g id="node35" class="node">
<title>LogsAndJournalsService </title>
<polygon fill="#fb8072" stroke="black" points="2524.24,-342 2363.76,-342 2363.76,-306 2524.24,-306 2524.24,-342"/>
<text text-anchor="middle" x="2444" y="-319.8" font-family="Times,serif" font-size="14.00">LogsAndJournalsService </text>
</g>
<!-- LogsAndJournalsModule&#45;&gt;LogsAndJournalsService  -->
<g id="edge35" class="edge">
<title>LogsAndJournalsModule&#45;&gt;LogsAndJournalsService </title>
<path fill="none" stroke="black" stroke-dasharray="5,2" d="M1713.41,-266.15C1713.41,-279.74 1713.41,-296 1713.41,-296 1713.41,-296 2375.46,-296 2375.46,-296 2375.46,-296 2375.46,-296.98 2375.46,-296.98"/>
<polygon fill="black" stroke="black" points="2371.96,-295.79 2375.46,-305.79 2378.96,-295.79 2371.96,-295.79"/>
</g>
<!-- RabbitModule -->
<g id="node12" class="node">
<title>RabbitModule</title>
<polygon fill="#8dd3c7" stroke="black" points="1658.38,-198 1655.38,-202 1634.38,-202 1631.38,-198 1561.62,-198 1561.62,-162 1658.38,-162 1658.38,-198"/>
<text text-anchor="middle" x="1610" y="-175.8" font-family="Times,serif" font-size="14.00">RabbitModule</text>
</g>
<!-- RabbitModule&#45;&gt;LogsAndJournalsModule -->
<g id="edge33" class="edge">
<title>RabbitModule&#45;&gt;LogsAndJournalsModule</title>
<path fill="none" stroke="black" d="M1638.49,-198.22C1638.49,-198.22 1638.49,-219.73 1638.49,-219.73"/>
<polygon fill="black" stroke="black" points="1634.99,-219.73 1638.49,-229.73 1641.99,-219.73 1634.99,-219.73"/>
</g>
<!-- RabbitModule&#45;&gt;ClientModule -->
<g id="edge10" class="edge">
<title>RabbitModule&#45;&gt;ClientModule</title>
<path fill="none" stroke="black" d="M1565.14,-198.24C1565.14,-198.24 1565.14,-295.91 1565.14,-295.91"/>
<polygon fill="black" stroke="black" points="1561.64,-295.91 1565.14,-305.91 1568.64,-295.91 1561.64,-295.91"/>
</g>
<!-- RabbitModule&#45;&gt;CoreModule -->
<g id="edge15" class="edge">
<title>RabbitModule&#45;&gt;CoreModule</title>
<path fill="none" stroke="black" d="M1651.79,-198.06C1651.79,-202.49 1651.79,-206 1651.79,-206 1651.79,-206 2639.54,-206 2639.54,-206 2639.54,-206 2639.54,-219.94 2639.54,-219.94"/>
<polygon fill="black" stroke="black" points="2636.04,-219.94 2639.54,-229.94 2643.04,-219.94 2636.04,-219.94"/>
</g>
<!-- RabbitModule&#45;&gt;SearchClientsModule -->
<g id="edge42" class="edge">
<title>RabbitModule&#45;&gt;SearchClientsModule</title>
<path fill="none" stroke="black" d="M1603.87,-198.16C1603.87,-229.41 1603.87,-290 1603.87,-290 1603.87,-290 2810.44,-290 2810.44,-290 2810.44,-290 2810.44,-295.81 2810.44,-295.81"/>
<polygon fill="black" stroke="black" points="2806.94,-295.81 2810.44,-305.81 2813.94,-295.81 2806.94,-295.81"/>
</g>
<!-- RabbitModule&#45;&gt;SearchUnlinkedMsisdnsModule -->
<g id="edge48" class="edge">
<title>RabbitModule&#45;&gt;SearchUnlinkedMsisdnsModule</title>
<path fill="none" stroke="black" d="M1645.14,-198.19C1645.14,-206.28 1645.14,-214 1645.14,-214 1645.14,-214 2601.68,-214 2601.68,-214 2601.68,-214 2601.68,-295.84 2601.68,-295.84"/>
<polygon fill="black" stroke="black" points="2598.18,-295.84 2601.68,-305.84 2605.18,-295.84 2598.18,-295.84"/>
</g>
<!-- RabbitMQService  -->
<g id="node38" class="node">
<title>RabbitMQService </title>
<polygon fill="#fb8072" stroke="black" points="1836.86,-122 1715.14,-122 1715.14,-86 1836.86,-86 1836.86,-122"/>
<text text-anchor="middle" x="1776" y="-99.8" font-family="Times,serif" font-size="14.00">RabbitMQService </text>
</g>
<!-- RabbitModule&#45;&gt;RabbitMQService  -->
<g id="edge38" class="edge">
<title>RabbitModule&#45;&gt;RabbitMQService </title>
<path fill="none" stroke="black" stroke-dasharray="5,2" d="M1626.15,-161.89C1626.15,-152.1 1626.15,-142 1626.15,-142 1626.15,-142 1752.46,-142 1752.46,-142 1752.46,-142 1752.46,-132.11 1752.46,-132.11"/>
<polygon fill="black" stroke="black" points="1755.96,-132.11 1752.46,-122.11 1748.96,-132.11 1755.96,-132.11"/>
</g>
<!-- ClientResolver  -->
<g id="node14" class="node">
<title>ClientResolver </title>
<polygon fill="#fb8072" stroke="black" points="1541.99,-418 1438.01,-418 1438.01,-382 1541.99,-382 1541.99,-418"/>
<text text-anchor="middle" x="1490" y="-395.8" font-family="Times,serif" font-size="14.00">ClientResolver </text>
</g>
<!-- ClientModule&#45;&gt;ClientResolver  -->
<g id="edge11" class="edge">
<title>ClientModule&#45;&gt;ClientResolver </title>
<path fill="none" stroke="black" stroke-dasharray="5,2" d="M1511.93,-342.01C1511.93,-342.01 1511.93,-371.85 1511.93,-371.85"/>
<polygon fill="black" stroke="black" points="1508.43,-371.85 1511.93,-381.85 1515.43,-371.85 1508.43,-371.85"/>
</g>
<!-- ClientService  -->
<g id="node15" class="node">
<title>ClientService </title>
<polygon fill="#fb8072" stroke="black" points="1655.7,-418 1560.3,-418 1560.3,-382 1655.7,-382 1655.7,-418"/>
<text text-anchor="middle" x="1608" y="-395.8" font-family="Times,serif" font-size="14.00">ClientService </text>
</g>
<!-- ClientModule&#45;&gt;ClientService  -->
<g id="edge12" class="edge">
<title>ClientModule&#45;&gt;ClientService </title>
<path fill="none" stroke="black" stroke-dasharray="5,2" d="M1568.02,-342.01C1568.02,-342.01 1568.02,-371.85 1568.02,-371.85"/>
<polygon fill="black" stroke="black" points="1564.52,-371.85 1568.02,-381.85 1571.52,-371.85 1564.52,-371.85"/>
</g>
<!-- ClientService -->
<g id="node16" class="node">
<title>ClientService</title>
<ellipse fill="#fdb462" stroke="black" cx="1474" cy="-248" rx="63.7" ry="18"/>
<text text-anchor="middle" x="1474" y="-243.8" font-family="Times,serif" font-size="14.00">ClientService</text>
</g>
<!-- ClientService&#45;&gt;ClientModule -->
<g id="edge13" class="edge">
<title>ClientService&#45;&gt;ClientModule</title>
<path fill="none" stroke="black" d="M1509.86,-263.02C1509.86,-263.02 1509.86,-295.8 1509.86,-295.8"/>
<polygon fill="black" stroke="black" points="1506.36,-295.8 1509.86,-305.8 1513.36,-295.8 1506.36,-295.8"/>
</g>
<!-- CoreModule&#45;&gt;GqlModule -->
<g id="edge20" class="edge">
<title>CoreModule&#45;&gt;GqlModule</title>
<path fill="none" stroke="black" d="M2654,-266.17C2654,-268.45 2654,-270 2654,-270 2654,-270 2948.02,-270 2948.02,-270 2948.02,-270 2948.02,-371.92 2948.02,-371.92"/>
<polygon fill="black" stroke="black" points="2944.52,-371.92 2948.02,-381.92 2951.52,-371.92 2944.52,-371.92"/>
</g>
<!-- KeycloakIntegrationModule -->
<g id="node18" class="node">
<title>KeycloakIntegrationModule</title>
<polygon fill="#8dd3c7" stroke="black" points="676.11,-198 673.11,-202 652.11,-202 649.11,-198 501.89,-198 501.89,-162 676.11,-162 676.11,-198"/>
<text text-anchor="middle" x="589" y="-175.8" font-family="Times,serif" font-size="14.00">KeycloakIntegrationModule</text>
</g>
<!-- KeycloakIntegrationModule&#45;&gt;DlModule -->
<g id="edge17" class="edge">
<title>KeycloakIntegrationModule&#45;&gt;DlModule</title>
<path fill="none" stroke="black" d="M618.1,-198.29C618.1,-220.21 618.1,-254 618.1,-254 618.1,-254 706.14,-254 706.14,-254"/>
<polygon fill="black" stroke="black" points="706.14,-257.5 716.14,-254 706.14,-250.5 706.14,-257.5"/>
</g>
<!-- KeycloakIntegrationService  -->
<g id="node29" class="node">
<title>KeycloakIntegrationService </title>
<polygon fill="#fb8072" stroke="black" points="462.04,-266 285.96,-266 285.96,-230 462.04,-230 462.04,-266"/>
<text text-anchor="middle" x="374" y="-243.8" font-family="Times,serif" font-size="14.00">KeycloakIntegrationService </text>
</g>
<!-- KeycloakIntegrationModule&#45;&gt;KeycloakIntegrationService  -->
<g id="edge28" class="edge">
<title>KeycloakIntegrationModule&#45;&gt;KeycloakIntegrationService </title>
<path fill="none" stroke="black" stroke-dasharray="5,2" d="M559.9,-198.27C559.9,-216.56 559.9,-242 559.9,-242 559.9,-242 472.05,-242 472.05,-242"/>
<polygon fill="black" stroke="black" points="472.05,-238.5 462.05,-242 472.05,-245.5 472.05,-238.5"/>
</g>
<!-- DLService -->
<g id="node20" class="node">
<title>DLService</title>
<ellipse fill="#fdb462" stroke="black" cx="753" cy="-180" rx="52.73" ry="18"/>
<text text-anchor="middle" x="753" y="-175.8" font-family="Times,serif" font-size="14.00">DLService</text>
</g>
<!-- DLService&#45;&gt;DlModule -->
<g id="edge18" class="edge">
<title>DLService&#45;&gt;DlModule</title>
<path fill="none" stroke="black" d="M753,-198.22C753,-198.22 753,-219.73 753,-219.73"/>
<polygon fill="black" stroke="black" points="749.5,-219.73 753,-229.73 756.5,-219.73 749.5,-219.73"/>
</g>
<!-- SearchClientsModule&#45;&gt;GqlModule -->
<g id="edge22" class="edge">
<title>SearchClientsModule&#45;&gt;GqlModule</title>
<path fill="none" stroke="black" d="M2924.34,-342.01C2924.34,-342.01 2924.34,-371.85 2924.34,-371.85"/>
<polygon fill="black" stroke="black" points="2920.84,-371.85 2924.34,-381.85 2927.84,-371.85 2920.84,-371.85"/>
</g>
<!-- SearchAreasService  -->
<g id="node41" class="node">
<title>SearchAreasService </title>
<polygon fill="#fb8072" stroke="black" points="2549.21,-266 2416.79,-266 2416.79,-230 2549.21,-230 2549.21,-266"/>
<text text-anchor="middle" x="2483" y="-243.8" font-family="Times,serif" font-size="14.00">SearchAreasService </text>
</g>
<!-- SearchClientsModule&#45;&gt;SearchAreasService  -->
<g id="edge43" class="edge">
<title>SearchClientsModule&#45;&gt;SearchAreasService </title>
<path fill="none" stroke="black" stroke-dasharray="5,2" d="M2870.9,-305.88C2870.9,-291.22 2870.9,-273 2870.9,-273 2870.9,-273 2530.8,-273 2530.8,-273 2530.8,-273 2530.8,-272.32 2530.8,-272.32"/>
<polygon fill="black" stroke="black" points="2534.3,-276.17 2530.8,-266.17 2527.3,-276.17 2534.3,-276.17"/>
</g>
<!-- SearchClientsService  -->
<g id="node42" class="node">
<title>SearchClientsService </title>
<polygon fill="#fb8072" stroke="black" points="2398.73,-266 2259.27,-266 2259.27,-230 2398.73,-230 2398.73,-266"/>
<text text-anchor="middle" x="2329" y="-243.8" font-family="Times,serif" font-size="14.00">SearchClientsService </text>
</g>
<!-- SearchClientsModule&#45;&gt;SearchClientsService  -->
<g id="edge44" class="edge">
<title>SearchClientsModule&#45;&gt;SearchClientsService </title>
<path fill="none" stroke="black" stroke-dasharray="5,2" d="M2858.81,-305.85C2858.81,-292.26 2858.81,-276 2858.81,-276 2858.81,-276 2387.04,-276 2387.04,-276 2387.04,-276 2387.04,-275.02 2387.04,-275.02"/>
<polygon fill="black" stroke="black" points="2390.54,-276.21 2387.04,-266.21 2383.54,-276.21 2390.54,-276.21"/>
</g>
<!-- SearchUnlinkedMsisdnsModule&#45;&gt;GqlModule -->
<g id="edge23" class="edge">
<title>SearchUnlinkedMsisdnsModule&#45;&gt;GqlModule</title>
<path fill="none" stroke="black" d="M2731.1,-342.01C2731.1,-364.49 2731.1,-400 2731.1,-400 2731.1,-400 2891.84,-400 2891.84,-400"/>
<polygon fill="black" stroke="black" points="2891.84,-403.5 2901.84,-400 2891.84,-396.5 2891.84,-403.5"/>
</g>
<!-- SearchUnlinkedMsisdnsResolver  -->
<g id="node45" class="node">
<title>SearchUnlinkedMsisdnsResolver </title>
<polygon fill="#fb8072" stroke="black" points="2328.12,-418 2121.88,-418 2121.88,-382 2328.12,-382 2328.12,-418"/>
<text text-anchor="middle" x="2225" y="-395.8" font-family="Times,serif" font-size="14.00">SearchUnlinkedMsisdnsResolver </text>
</g>
<!-- SearchUnlinkedMsisdnsModule&#45;&gt;SearchUnlinkedMsisdnsResolver  -->
<g id="edge49" class="edge">
<title>SearchUnlinkedMsisdnsModule&#45;&gt;SearchUnlinkedMsisdnsResolver </title>
<path fill="none" stroke="black" stroke-dasharray="5,2" d="M2682,-342.15C2682,-355.74 2682,-372 2682,-372 2682,-372 2281.91,-372 2281.91,-372 2281.91,-372 2281.91,-372.98 2281.91,-372.98"/>
<polygon fill="black" stroke="black" points="2278.41,-371.79 2281.91,-381.79 2285.41,-371.79 2278.41,-371.79"/>
</g>
<!-- SearchUnlinkedMsisdnsService  -->
<g id="node46" class="node">
<title>SearchUnlinkedMsisdnsService </title>
<polygon fill="#fb8072" stroke="black" points="2544.34,-418 2345.66,-418 2345.66,-382 2544.34,-382 2544.34,-418"/>
<text text-anchor="middle" x="2445" y="-395.8" font-family="Times,serif" font-size="14.00">SearchUnlinkedMsisdnsService </text>
</g>
<!-- SearchUnlinkedMsisdnsModule&#45;&gt;SearchUnlinkedMsisdnsService  -->
<g id="edge50" class="edge">
<title>SearchUnlinkedMsisdnsModule&#45;&gt;SearchUnlinkedMsisdnsService </title>
<path fill="none" stroke="black" stroke-dasharray="5,2" d="M2583.61,-324C2558.02,-324 2537.48,-324 2537.48,-324 2537.48,-324 2537.48,-371.99 2537.48,-371.99"/>
<polygon fill="black" stroke="black" points="2533.98,-371.99 2537.48,-381.99 2540.98,-371.99 2533.98,-371.99"/>
</g>
<!-- AppService -->
<g id="node24" class="node">
<title>AppService</title>
<ellipse fill="#fdb462" stroke="black" cx="3017" cy="-324" rx="56.74" ry="18"/>
<text text-anchor="middle" x="3017" y="-319.8" font-family="Times,serif" font-size="14.00">AppService</text>
</g>
<!-- AppService&#45;&gt;GqlModule -->
<g id="edge24" class="edge">
<title>AppService&#45;&gt;GqlModule</title>
<path fill="none" stroke="black" d="M2971.33,-334.89C2971.33,-334.89 2971.33,-371.79 2971.33,-371.79"/>
<polygon fill="black" stroke="black" points="2967.83,-371.79 2971.33,-381.79 2974.83,-371.79 2967.83,-371.79"/>
</g>
<!-- JournalizatingService  -->
<g id="node25" class="node">
<title>JournalizatingService </title>
<polygon fill="#fb8072" stroke="black" points="3560.29,-266 3419.71,-266 3419.71,-230 3560.29,-230 3560.29,-266"/>
<text text-anchor="middle" x="3490" y="-243.8" font-family="Times,serif" font-size="14.00">JournalizatingService </text>
</g>
<!-- JournalizatingModule -->
<g id="node26" class="node">
<title>JournalizatingModule</title>
<polygon fill="#8dd3c7" stroke="black" points="3559.36,-198 3556.36,-202 3535.36,-202 3532.36,-198 3420.64,-198 3420.64,-162 3559.36,-162 3559.36,-198"/>
<text text-anchor="middle" x="3490" y="-175.8" font-family="Times,serif" font-size="14.00">JournalizatingModule</text>
</g>
<!-- JournalizatingModule&#45;&gt;JournalizatingService  -->
<g id="edge25" class="edge">
<title>JournalizatingModule&#45;&gt;JournalizatingService </title>
<path fill="none" stroke="black" stroke-dasharray="5,2" d="M3490,-198.22C3490,-198.22 3490,-219.73 3490,-219.73"/>
<polygon fill="black" stroke="black" points="3486.5,-219.73 3490,-229.73 3493.5,-219.73 3486.5,-219.73"/>
</g>
<!-- JournalizationModule -->
<g id="node28" class="node">
<title>JournalizationModule</title>
<polygon fill="#8dd3c7" stroke="black" points="3743.36,-266 3740.36,-270 3719.36,-270 3716.36,-266 3604.64,-266 3604.64,-230 3743.36,-230 3743.36,-266"/>
<text text-anchor="middle" x="3674" y="-243.8" font-family="Times,serif" font-size="14.00">JournalizationModule</text>
</g>
<!-- JournalizatingModule&#45;&gt;JournalizationModule -->
<g id="edge27" class="edge">
<title>JournalizatingModule&#45;&gt;JournalizationModule</title>
<path fill="none" stroke="black" d="M3559.56,-180C3611.67,-180 3674,-180 3674,-180 3674,-180 3674,-219.78 3674,-219.78"/>
<polygon fill="black" stroke="black" points="3670.5,-219.78 3674,-229.78 3677.5,-219.78 3670.5,-219.78"/>
</g>
<!-- JournalizatingService -->
<g id="node27" class="node">
<title>JournalizatingService</title>
<ellipse fill="#fdb462" stroke="black" cx="3478" cy="-104" rx="94.9" ry="18"/>
<text text-anchor="middle" x="3478" y="-99.8" font-family="Times,serif" font-size="14.00">JournalizatingService</text>
</g>
<!-- JournalizatingService&#45;&gt;JournalizatingModule -->
<g id="edge26" class="edge">
<title>JournalizatingService&#45;&gt;JournalizatingModule</title>
<path fill="none" stroke="black" d="M3490,-122.01C3490,-122.01 3490,-151.85 3490,-151.85"/>
<polygon fill="black" stroke="black" points="3486.5,-151.85 3490,-161.85 3493.5,-151.85 3486.5,-151.85"/>
</g>
<!-- KeycloakIntegrationService -->
<g id="node30" class="node">
<title>KeycloakIntegrationService</title>
<ellipse fill="#fdb462" stroke="black" cx="143" cy="-248" rx="119.22" ry="18"/>
<text text-anchor="middle" x="143" y="-243.8" font-family="Times,serif" font-size="14.00">KeycloakIntegrationService</text>
</g>
<!-- KeycloakIntegrationService&#45;&gt;KeycloakIntegrationModule -->
<g id="edge29" class="edge">
<title>KeycloakIntegrationService&#45;&gt;KeycloakIntegrationModule</title>
<path fill="none" stroke="black" d="M143,-229.78C143,-209.63 143,-180 143,-180 143,-180 491.68,-180 491.68,-180"/>
<polygon fill="black" stroke="black" points="491.68,-183.5 501.68,-180 491.68,-176.5 491.68,-183.5"/>
</g>
<!-- KeycloakService -->
<g id="node33" class="node">
<title>KeycloakService</title>
<ellipse fill="#fdb462" stroke="black" cx="2806" cy="-248" rx="76.98" ry="18"/>
<text text-anchor="middle" x="2806" y="-243.8" font-family="Times,serif" font-size="14.00">KeycloakService</text>
</g>
<!-- KeycloakService&#45;&gt;KeycloakModule -->
<g id="edge32" class="edge">
<title>KeycloakService&#45;&gt;KeycloakModule</title>
<path fill="none" stroke="black" d="M2806,-229.83C2806,-210.91 2806,-184 2806,-184 2806,-184 1799.93,-184 1799.93,-184"/>
<polygon fill="black" stroke="black" points="1799.93,-180.5 1789.93,-184 1799.93,-187.5 1799.93,-180.5"/>
</g>
<!-- AppLoggerLoki -->
<g id="node36" class="node">
<title>AppLoggerLoki</title>
<ellipse fill="#fdb462" stroke="black" cx="1904" cy="-324" rx="73.58" ry="18"/>
<text text-anchor="middle" x="1904" y="-319.8" font-family="Times,serif" font-size="14.00">AppLoggerLoki</text>
</g>
<!-- AppLoggerLoki&#45;&gt;LogsAndJournalsModule -->
<g id="edge36" class="edge">
<title>AppLoggerLoki&#45;&gt;LogsAndJournalsModule</title>
<path fill="none" stroke="black" d="M1844.53,-313.11C1844.53,-292.1 1844.53,-248 1844.53,-248 1844.53,-248 1800.22,-248 1800.22,-248"/>
<polygon fill="black" stroke="black" points="1800.22,-244.5 1790.22,-248 1800.22,-251.5 1800.22,-244.5"/>
</g>
<!-- LogsAndJournalsService -->
<g id="node37" class="node">
<title>LogsAndJournalsService</title>
<ellipse fill="#fdb462" stroke="black" cx="2104" cy="-324" rx="108.23" ry="18"/>
<text text-anchor="middle" x="2104" y="-319.8" font-family="Times,serif" font-size="14.00">LogsAndJournalsService</text>
</g>
<!-- LogsAndJournalsService&#45;&gt;LogsAndJournalsModule -->
<g id="edge37" class="edge">
<title>LogsAndJournalsService&#45;&gt;LogsAndJournalsModule</title>
<path fill="none" stroke="black" d="M2010.47,-314.97C2010.47,-309.28 2010.47,-303 2010.47,-303 2010.47,-303 1770.97,-303 1770.97,-303 1770.97,-303 1770.97,-276.01 1770.97,-276.01"/>
<polygon fill="black" stroke="black" points="1774.47,-276.01 1770.97,-266.01 1767.47,-276.01 1774.47,-276.01"/>
</g>
<!-- RabbitMQService -->
<g id="node39" class="node">
<title>RabbitMQService</title>
<ellipse fill="#fdb462" stroke="black" cx="1610" cy="-104" rx="81.1" ry="18"/>
<text text-anchor="middle" x="1610" y="-99.8" font-family="Times,serif" font-size="14.00">RabbitMQService</text>
</g>
<!-- RabbitMQService&#45;&gt;RabbitModule -->
<g id="edge39" class="edge">
<title>RabbitMQService&#45;&gt;RabbitModule</title>
<path fill="none" stroke="black" d="M1593.85,-122.01C1593.85,-122.01 1593.85,-151.85 1593.85,-151.85"/>
<polygon fill="black" stroke="black" points="1590.35,-151.85 1593.85,-161.85 1597.35,-151.85 1590.35,-151.85"/>
</g>
<!-- SearchService -->
<g id="node40" class="node">
<title>SearchService</title>
<ellipse fill="#fdb462" stroke="black" cx="1444" cy="-104" rx="66.03" ry="18"/>
<text text-anchor="middle" x="1444" y="-99.8" font-family="Times,serif" font-size="14.00">SearchService</text>
</g>
<!-- SearchService&#45;&gt;RabbitModule -->
<g id="edge40" class="edge">
<title>SearchService&#45;&gt;RabbitModule</title>
<path fill="none" stroke="black" d="M1460.33,-121.79C1460.33,-145.91 1460.33,-186 1460.33,-186 1460.33,-186 1551.41,-186 1551.41,-186"/>
<polygon fill="black" stroke="black" points="1551.41,-189.5 1561.41,-186 1551.41,-182.5 1551.41,-189.5"/>
</g>
<!-- SearchAreasService -->
<g id="node43" class="node">
<title>SearchAreasService</title>
<ellipse fill="#fdb462" stroke="black" cx="2146" cy="-248" rx="88.56" ry="18"/>
<text text-anchor="middle" x="2146" y="-243.8" font-family="Times,serif" font-size="14.00">SearchAreasService</text>
</g>
<!-- SearchAreasService&#45;&gt;SearchClientsModule -->
<g id="edge45" class="edge">
<title>SearchAreasService&#45;&gt;SearchClientsModule</title>
<path fill="none" stroke="black" d="M2223.45,-257.08C2223.45,-266.54 2223.45,-280 2223.45,-280 2223.45,-280 2846.72,-280 2846.72,-280 2846.72,-280 2846.72,-295.85 2846.72,-295.85"/>
<polygon fill="black" stroke="black" points="2843.22,-295.85 2846.72,-305.85 2850.22,-295.85 2843.22,-295.85"/>
</g>
<!-- SearchClientsService -->
<g id="node44" class="node">
<title>SearchClientsService</title>
<ellipse fill="#fdb462" stroke="black" cx="1946" cy="-248" rx="93.75" ry="18"/>
<text text-anchor="middle" x="1946" y="-243.8" font-family="Times,serif" font-size="14.00">SearchClientsService</text>
</g>
<!-- SearchClientsService&#45;&gt;SearchClientsModule -->
<g id="edge46" class="edge">
<title>SearchClientsService&#45;&gt;SearchClientsModule</title>
<path fill="none" stroke="black" d="M2025.05,-257.94C2025.05,-268.28 2025.05,-283 2025.05,-283 2025.05,-283 2834.62,-283 2834.62,-283 2834.62,-283 2834.62,-295.9 2834.62,-295.9"/>
<polygon fill="black" stroke="black" points="2831.12,-295.9 2834.62,-305.9 2838.12,-295.9 2831.12,-295.9"/>
</g>
<!-- SearchUnlinkedMsisdnsService -->
<g id="node47" class="node">
<title>SearchUnlinkedMsisdnsService</title>
<ellipse fill="#fdb462" stroke="black" cx="1964" cy="-400" rx="134.29" ry="18"/>
<text text-anchor="middle" x="1964" y="-395.8" font-family="Times,serif" font-size="14.00">SearchUnlinkedMsisdnsService</text>
</g>
<!-- SearchUnlinkedMsisdnsService&#45;&gt;SearchUnlinkedMsisdnsModule -->
<g id="edge51" class="edge">
<title>SearchUnlinkedMsisdnsService&#45;&gt;SearchUnlinkedMsisdnsModule</title>
<path fill="none" stroke="black" d="M2047.14,-385.85C2047.14,-375.05 2047.14,-362 2047.14,-362 2047.14,-362 2632.9,-362 2632.9,-362 2632.9,-362 2632.9,-352.11 2632.9,-352.11"/>
<polygon fill="black" stroke="black" points="2636.4,-352.11 2632.9,-342.11 2629.4,-352.11 2636.4,-352.11"/>
</g>
</g>
</svg>
