<?xml version="1.0" encoding="UTF-8" standalone="no"?>
<!DOCTYPE svg PUBLIC "-//W3C//DTD SVG 1.1//EN"
 "http://www.w3.org/Graphics/SVG/1.1/DTD/svg11.dtd">
<!-- Generated by graphviz version 2.47.0 (20210316.0004)
 -->
<!-- Title: dependencies Pages: 1 -->
<svg width="613pt" height="284pt"
 viewBox="0.00 0.00 613.00 284.00" xmlns="http://www.w3.org/2000/svg" xmlns:xlink="http://www.w3.org/1999/xlink">
<g id="graph0" class="graph" transform="scale(1 1) rotate(0) translate(4 280)">
<title>dependencies</title>
<polygon fill="white" stroke="transparent" points="-4,4 -4,-280 609,-280 609,4 -4,4"/>
<text text-anchor="start" x="281.51" y="-42.4" font-family="Times-12" font-weight="bold" font-size="14.00">Legend</text>
<polygon fill="#ffffb3" stroke="transparent" points="68.5,-10 68.5,-30 88.5,-30 88.5,-10 68.5,-10"/>
<text text-anchor="start" x="92.13" y="-15.4" font-family="Times-12" font-size="14.00"> &#160;Declarations</text>
<polygon fill="#8dd3c7" stroke="transparent" points="181.5,-10 181.5,-30 201.5,-30 201.5,-10 181.5,-10"/>
<text text-anchor="start" x="205.23" y="-15.4" font-family="Times-12" font-size="14.00"> &#160;Module</text>
<polygon fill="#80b1d3" stroke="transparent" points="267.5,-10 267.5,-30 287.5,-30 287.5,-10 267.5,-10"/>
<text text-anchor="start" x="291.28" y="-15.4" font-family="Times-12" font-size="14.00"> &#160;Bootstrap</text>
<polygon fill="#fdb462" stroke="transparent" points="364.5,-10 364.5,-30 384.5,-30 384.5,-10 364.5,-10"/>
<text text-anchor="start" x="388.17" y="-15.4" font-family="Times-12" font-size="14.00"> &#160;Providers</text>
<polygon fill="#fb8072" stroke="transparent" points="460.5,-10 460.5,-30 480.5,-30 480.5,-10 460.5,-10"/>
<text text-anchor="start" x="484.23" y="-15.4" font-family="Times-12" font-size="14.00"> &#160;Exports</text>
<g id="clust1" class="cluster">
<title>cluster_ClientModule</title>
<polygon fill="none" stroke="black" stroke-dasharray="1,5" points="8,-70 8,-268 597,-268 597,-70 8,-70"/>
</g>
<g id="clust3" class="cluster">
<title>cluster_ClientModule_imports</title>
<polygon fill="none" stroke="black" points="168,-78 168,-130 589,-130 589,-78 168,-78"/>
</g>
<g id="clust6" class="cluster">
<title>cluster_ClientModule_providers</title>
<polygon fill="none" stroke="black" points="16,-78 16,-130 160,-130 160,-78 16,-78"/>
</g>
<g id="clust4" class="cluster">
<title>cluster_ClientModule_exports</title>
<polygon fill="none" stroke="black" points="182,-208 182,-260 416,-260 416,-208 182,-208"/>
</g>
<!-- KeycloakModule -->
<g id="node1" class="node">
<title>KeycloakModule</title>
<polygon fill="#8dd3c7" stroke="black" points="580.69,-122 577.69,-126 556.69,-126 553.69,-122 467.31,-122 467.31,-86 580.69,-86 580.69,-122"/>
<text text-anchor="middle" x="524" y="-99.8" font-family="Times,serif" font-size="14.00">KeycloakModule</text>
</g>
<!-- ClientModule -->
<g id="node4" class="node">
<title>ClientModule</title>
<polygon fill="#8dd3c7" stroke="black" points="343.77,-187 340.77,-191 319.77,-191 316.77,-187 250.23,-187 250.23,-151 343.77,-151 343.77,-187"/>
<text text-anchor="middle" x="297" y="-164.8" font-family="Times,serif" font-size="14.00">ClientModule</text>
</g>
<!-- KeycloakModule&#45;&gt;ClientModule -->
<g id="edge1" class="edge">
<title>KeycloakModule&#45;&gt;ClientModule</title>
<path fill="none" stroke="black" d="M524,-122.11C524,-141.34 524,-169 524,-169 524,-169 354.03,-169 354.03,-169"/>
<polygon fill="black" stroke="black" points="354.03,-165.5 344.03,-169 354.03,-172.5 354.03,-165.5"/>
</g>
<!-- LogsAndJournalsModule -->
<g id="node2" class="node">
<title>LogsAndJournalsModule</title>
<polygon fill="#8dd3c7" stroke="black" points="449.31,-122 446.31,-126 425.31,-126 422.31,-122 290.69,-122 290.69,-86 449.31,-86 449.31,-122"/>
<text text-anchor="middle" x="370" y="-99.8" font-family="Times,serif" font-size="14.00">LogsAndJournalsModule</text>
</g>
<!-- LogsAndJournalsModule&#45;&gt;ClientModule -->
<g id="edge2" class="edge">
<title>LogsAndJournalsModule&#45;&gt;ClientModule</title>
<path fill="none" stroke="black" d="M317.37,-122.11C317.37,-122.11 317.37,-140.99 317.37,-140.99"/>
<polygon fill="black" stroke="black" points="313.87,-140.99 317.37,-150.99 320.87,-140.99 313.87,-140.99"/>
</g>
<!-- RabbitModule -->
<g id="node3" class="node">
<title>RabbitModule</title>
<polygon fill="#8dd3c7" stroke="black" points="272.38,-122 269.38,-126 248.38,-126 245.38,-122 175.62,-122 175.62,-86 272.38,-86 272.38,-122"/>
<text text-anchor="middle" x="224" y="-99.8" font-family="Times,serif" font-size="14.00">RabbitModule</text>
</g>
<!-- RabbitModule&#45;&gt;ClientModule -->
<g id="edge3" class="edge">
<title>RabbitModule&#45;&gt;ClientModule</title>
<path fill="none" stroke="black" d="M261.28,-122.11C261.28,-122.11 261.28,-140.99 261.28,-140.99"/>
<polygon fill="black" stroke="black" points="257.78,-140.99 261.28,-150.99 264.78,-140.99 257.78,-140.99"/>
</g>
<!-- ClientResolver  -->
<g id="node5" class="node">
<title>ClientResolver </title>
<polygon fill="#fb8072" stroke="black" points="407.99,-252 304.01,-252 304.01,-216 407.99,-216 407.99,-252"/>
<text text-anchor="middle" x="356" y="-229.8" font-family="Times,serif" font-size="14.00">ClientResolver </text>
</g>
<!-- ClientModule&#45;&gt;ClientResolver  -->
<g id="edge4" class="edge">
<title>ClientModule&#45;&gt;ClientResolver </title>
<path fill="none" stroke="black" stroke-dasharray="5,2" d="M324.07,-187.11C324.07,-187.11 324.07,-205.99 324.07,-205.99"/>
<polygon fill="black" stroke="black" points="320.57,-205.99 324.07,-215.99 327.57,-205.99 320.57,-205.99"/>
</g>
<!-- ClientService  -->
<g id="node6" class="node">
<title>ClientService </title>
<polygon fill="#fb8072" stroke="black" points="285.7,-252 190.3,-252 190.3,-216 285.7,-216 285.7,-252"/>
<text text-anchor="middle" x="238" y="-229.8" font-family="Times,serif" font-size="14.00">ClientService </text>
</g>
<!-- ClientModule&#45;&gt;ClientService  -->
<g id="edge5" class="edge">
<title>ClientModule&#45;&gt;ClientService </title>
<path fill="none" stroke="black" stroke-dasharray="5,2" d="M267.98,-187.11C267.98,-187.11 267.98,-205.99 267.98,-205.99"/>
<polygon fill="black" stroke="black" points="264.48,-205.99 267.98,-215.99 271.48,-205.99 264.48,-205.99"/>
</g>
<!-- ClientService -->
<g id="node7" class="node">
<title>ClientService</title>
<ellipse fill="#fdb462" stroke="black" cx="88" cy="-104" rx="63.7" ry="18"/>
<text text-anchor="middle" x="88" y="-99.8" font-family="Times,serif" font-size="14.00">ClientService</text>
</g>
<!-- ClientService&#45;&gt;ClientModule -->
<g id="edge6" class="edge">
<title>ClientService&#45;&gt;ClientModule</title>
<path fill="none" stroke="black" d="M88,-122.11C88,-141.34 88,-169 88,-169 88,-169 240.1,-169 240.1,-169"/>
<polygon fill="black" stroke="black" points="240.1,-172.5 250.1,-169 240.1,-165.5 240.1,-172.5"/>
</g>
</g>
</svg>
