<?xml version="1.0" encoding="UTF-8" standalone="no"?>
<!DOCTYPE svg PUBLIC "-//W3C//DTD SVG 1.1//EN"
 "http://www.w3.org/Graphics/SVG/1.1/DTD/svg11.dtd">
<!-- Generated by graphviz version 2.47.0 (20210316.0004)
 -->
<!-- Title: dependencies Pages: 1 -->
<svg width="514pt" height="284pt"
 viewBox="0.00 0.00 514.00 284.00" xmlns="http://www.w3.org/2000/svg" xmlns:xlink="http://www.w3.org/1999/xlink">
<g id="graph0" class="graph" transform="scale(1 1) rotate(0) translate(4 280)">
<title>dependencies</title>
<polygon fill="white" stroke="transparent" points="-4,4 -4,-280 510,-280 510,4 -4,4"/>
<text text-anchor="start" x="232.01" y="-42.4" font-family="Times-12" font-weight="bold" font-size="14.00">Legend</text>
<polygon fill="#ffffb3" stroke="transparent" points="19,-10 19,-30 39,-30 39,-10 19,-10"/>
<text text-anchor="start" x="42.63" y="-15.4" font-family="Times-12" font-size="14.00"> &#160;Declarations</text>
<polygon fill="#8dd3c7" stroke="transparent" points="132,-10 132,-30 152,-30 152,-10 132,-10"/>
<text text-anchor="start" x="155.73" y="-15.4" font-family="Times-12" font-size="14.00"> &#160;Module</text>
<polygon fill="#80b1d3" stroke="transparent" points="218,-10 218,-30 238,-30 238,-10 218,-10"/>
<text text-anchor="start" x="241.78" y="-15.4" font-family="Times-12" font-size="14.00"> &#160;Bootstrap</text>
<polygon fill="#fdb462" stroke="transparent" points="315,-10 315,-30 335,-30 335,-10 315,-10"/>
<text text-anchor="start" x="338.67" y="-15.4" font-family="Times-12" font-size="14.00"> &#160;Providers</text>
<polygon fill="#fb8072" stroke="transparent" points="411,-10 411,-30 431,-30 431,-10 411,-10"/>
<text text-anchor="start" x="434.73" y="-15.4" font-family="Times-12" font-size="14.00"> &#160;Exports</text>
<g id="clust1" class="cluster">
<title>cluster_LogsModule</title>
<polygon fill="none" stroke="black" stroke-dasharray="1,5" points="8,-70 8,-268 498,-268 498,-70 8,-70"/>
</g>
<g id="clust4" class="cluster">
<title>cluster_LogsModule_exports</title>
<polygon fill="none" stroke="black" points="90,-208 90,-260 362,-260 362,-208 90,-208"/>
</g>
<g id="clust6" class="cluster">
<title>cluster_LogsModule_providers</title>
<polygon fill="none" stroke="black" points="136,-78 136,-130 490,-130 490,-78 136,-78"/>
</g>
<g id="clust3" class="cluster">
<title>cluster_LogsModule_imports</title>
<polygon fill="none" stroke="black" points="16,-78 16,-130 128,-130 128,-78 16,-78"/>
</g>
<!-- RabbitModule -->
<g id="node1" class="node">
<title>RabbitModule</title>
<polygon fill="#8dd3c7" stroke="black" points="120.38,-122 117.38,-126 96.38,-126 93.38,-122 23.62,-122 23.62,-86 120.38,-86 120.38,-122"/>
<text text-anchor="middle" x="72" y="-99.8" font-family="Times,serif" font-size="14.00">RabbitModule</text>
</g>
<!-- LogsModule -->
<g id="node2" class="node">
<title>LogsModule</title>
<polygon fill="#8dd3c7" stroke="black" points="273.55,-187 270.55,-191 249.55,-191 246.55,-187 186.45,-187 186.45,-151 273.55,-151 273.55,-187"/>
<text text-anchor="middle" x="230" y="-164.8" font-family="Times,serif" font-size="14.00">LogsModule</text>
</g>
<!-- RabbitModule&#45;&gt;LogsModule -->
<g id="edge1" class="edge">
<title>RabbitModule&#45;&gt;LogsModule</title>
<path fill="none" stroke="black" d="M109.13,-122.11C109.13,-141.34 109.13,-169 109.13,-169 109.13,-169 176.36,-169 176.36,-169"/>
<polygon fill="black" stroke="black" points="176.36,-172.5 186.36,-169 176.36,-165.5 176.36,-172.5"/>
</g>
<!-- AppLoggerLoki  -->
<g id="node3" class="node">
<title>AppLoggerLoki </title>
<polygon fill="#fb8072" stroke="black" points="354.48,-252 243.52,-252 243.52,-216 354.48,-216 354.48,-252"/>
<text text-anchor="middle" x="299" y="-229.8" font-family="Times,serif" font-size="14.00">AppLoggerLoki </text>
</g>
<!-- LogsModule&#45;&gt;AppLoggerLoki  -->
<g id="edge2" class="edge">
<title>LogsModule&#45;&gt;AppLoggerLoki </title>
<path fill="none" stroke="black" stroke-dasharray="5,2" d="M258.77,-187.11C258.77,-187.11 258.77,-205.99 258.77,-205.99"/>
<polygon fill="black" stroke="black" points="255.27,-205.99 258.77,-215.99 262.27,-205.99 255.27,-205.99"/>
</g>
<!-- LogsAdminService  -->
<g id="node4" class="node">
<title>LogsAdminService </title>
<polygon fill="#fb8072" stroke="black" points="226.36,-252 97.64,-252 97.64,-216 226.36,-216 226.36,-252"/>
<text text-anchor="middle" x="162" y="-229.8" font-family="Times,serif" font-size="14.00">LogsAdminService </text>
</g>
<!-- LogsModule&#45;&gt;LogsAdminService  -->
<g id="edge3" class="edge">
<title>LogsModule&#45;&gt;LogsAdminService </title>
<path fill="none" stroke="black" stroke-dasharray="5,2" d="M206.2,-187.11C206.2,-187.11 206.2,-205.99 206.2,-205.99"/>
<polygon fill="black" stroke="black" points="202.7,-205.99 206.2,-215.99 209.7,-205.99 202.7,-205.99"/>
</g>
<!-- AppLoggerLoki -->
<g id="node5" class="node">
<title>AppLoggerLoki</title>
<ellipse fill="#fdb462" stroke="black" cx="408" cy="-104" rx="73.58" ry="18"/>
<text text-anchor="middle" x="408" y="-99.8" font-family="Times,serif" font-size="14.00">AppLoggerLoki</text>
</g>
<!-- AppLoggerLoki&#45;&gt;LogsModule -->
<g id="edge4" class="edge">
<title>AppLoggerLoki&#45;&gt;LogsModule</title>
<path fill="none" stroke="black" d="M344.22,-113.31C344.22,-131.29 344.22,-169 344.22,-169 344.22,-169 283.84,-169 283.84,-169"/>
<polygon fill="black" stroke="black" points="283.84,-165.5 273.84,-169 283.84,-172.5 283.84,-165.5"/>
</g>
<!-- LogsAdminService -->
<g id="node6" class="node">
<title>LogsAdminService</title>
<ellipse fill="#fdb462" stroke="black" cx="230" cy="-104" rx="86.26" ry="18"/>
<text text-anchor="middle" x="230" y="-99.8" font-family="Times,serif" font-size="14.00">LogsAdminService</text>
</g>
<!-- LogsAdminService&#45;&gt;LogsModule -->
<g id="edge5" class="edge">
<title>LogsAdminService&#45;&gt;LogsModule</title>
<path fill="none" stroke="black" d="M230,-122.11C230,-122.11 230,-140.99 230,-140.99"/>
<polygon fill="black" stroke="black" points="226.5,-140.99 230,-150.99 233.5,-140.99 226.5,-140.99"/>
</g>
</g>
</svg>
