<?xml version="1.0" encoding="UTF-8" standalone="no"?>
<!DOCTYPE svg PUBLIC "-//W3C//DTD SVG 1.1//EN"
 "http://www.w3.org/Graphics/SVG/1.1/DTD/svg11.dtd">
<!-- Generated by graphviz version 2.47.0 (20210316.0004)
 -->
<!-- Title: dependencies Pages: 1 -->
<svg width="933pt" height="211pt"
 viewBox="0.00 0.00 933.00 211.00" xmlns="http://www.w3.org/2000/svg" xmlns:xlink="http://www.w3.org/1999/xlink">
<g id="graph0" class="graph" transform="scale(1 1) rotate(0) translate(4 207)">
<title>dependencies</title>
<polygon fill="white" stroke="transparent" points="-4,4 -4,-207 929,-207 929,4 -4,4"/>
<text text-anchor="start" x="441.51" y="-42.4" font-family="Times-12" font-weight="bold" font-size="14.00">Legend</text>
<polygon fill="#ffffb3" stroke="transparent" points="228.5,-10 228.5,-30 248.5,-30 248.5,-10 228.5,-10"/>
<text text-anchor="start" x="252.13" y="-15.4" font-family="Times-12" font-size="14.00"> &#160;Declarations</text>
<polygon fill="#8dd3c7" stroke="transparent" points="341.5,-10 341.5,-30 361.5,-30 361.5,-10 341.5,-10"/>
<text text-anchor="start" x="365.23" y="-15.4" font-family="Times-12" font-size="14.00"> &#160;Module</text>
<polygon fill="#80b1d3" stroke="transparent" points="427.5,-10 427.5,-30 447.5,-30 447.5,-10 427.5,-10"/>
<text text-anchor="start" x="451.28" y="-15.4" font-family="Times-12" font-size="14.00"> &#160;Bootstrap</text>
<polygon fill="#fdb462" stroke="transparent" points="524.5,-10 524.5,-30 544.5,-30 544.5,-10 524.5,-10"/>
<text text-anchor="start" x="548.17" y="-15.4" font-family="Times-12" font-size="14.00"> &#160;Providers</text>
<polygon fill="#fb8072" stroke="transparent" points="620.5,-10 620.5,-30 640.5,-30 640.5,-10 620.5,-10"/>
<text text-anchor="start" x="644.23" y="-15.4" font-family="Times-12" font-size="14.00"> &#160;Exports</text>
<g id="clust1" class="cluster">
<title>cluster_GqlModule</title>
<polygon fill="none" stroke="black" stroke-dasharray="1,5" points="8,-70 8,-195 917,-195 917,-70 8,-70"/>
</g>
<g id="clust3" class="cluster">
<title>cluster_GqlModule_imports</title>
<polygon fill="none" stroke="black" points="154,-78 154,-130 909,-130 909,-78 154,-78"/>
</g>
<g id="clust6" class="cluster">
<title>cluster_GqlModule_providers</title>
<polygon fill="none" stroke="black" points="16,-78 16,-130 146,-130 146,-78 16,-78"/>
</g>
<!-- AuthModule -->
<g id="node1" class="node">
<title>AuthModule</title>
<polygon fill="#8dd3c7" stroke="black" points="900.55,-122 897.55,-126 876.55,-126 873.55,-122 813.45,-122 813.45,-86 900.55,-86 900.55,-122"/>
<text text-anchor="middle" x="857" y="-99.8" font-family="Times,serif" font-size="14.00">AuthModule</text>
</g>
<!-- GqlModule -->
<g id="node6" class="node">
<title>GqlModule</title>
<polygon fill="#8dd3c7" stroke="black" points="568.05,-187 565.05,-191 544.05,-191 541.05,-187 487.95,-187 487.95,-151 568.05,-151 568.05,-187"/>
<text text-anchor="middle" x="528" y="-164.8" font-family="Times,serif" font-size="14.00">GqlModule</text>
</g>
<!-- AuthModule&#45;&gt;GqlModule -->
<g id="edge1" class="edge">
<title>AuthModule&#45;&gt;GqlModule</title>
<path fill="none" stroke="black" d="M857,-122.28C857,-143.32 857,-175 857,-175 857,-175 578.34,-175 578.34,-175"/>
<polygon fill="black" stroke="black" points="578.34,-171.5 568.34,-175 578.34,-178.5 578.34,-171.5"/>
</g>
<!-- CoreModule -->
<g id="node2" class="node">
<title>CoreModule</title>
<polygon fill="#8dd3c7" stroke="black" points="795.26,-122 792.26,-126 771.26,-126 768.26,-122 708.74,-122 708.74,-86 795.26,-86 795.26,-122"/>
<text text-anchor="middle" x="752" y="-99.8" font-family="Times,serif" font-size="14.00">CoreModule</text>
</g>
<!-- CoreModule&#45;&gt;GqlModule -->
<g id="edge2" class="edge">
<title>CoreModule&#45;&gt;GqlModule</title>
<path fill="none" stroke="black" d="M752,-122.02C752,-139.37 752,-163 752,-163 752,-163 578.31,-163 578.31,-163"/>
<polygon fill="black" stroke="black" points="578.31,-159.5 568.31,-163 578.31,-166.5 578.31,-159.5"/>
</g>
<!-- LogsAndJournalsModule -->
<g id="node3" class="node">
<title>LogsAndJournalsModule</title>
<polygon fill="#8dd3c7" stroke="black" points="690.31,-122 687.31,-126 666.31,-126 663.31,-122 531.69,-122 531.69,-86 690.31,-86 690.31,-122"/>
<text text-anchor="middle" x="611" y="-99.8" font-family="Times,serif" font-size="14.00">LogsAndJournalsModule</text>
</g>
<!-- LogsAndJournalsModule&#45;&gt;GqlModule -->
<g id="edge3" class="edge">
<title>LogsAndJournalsModule&#45;&gt;GqlModule</title>
<path fill="none" stroke="black" d="M550.06,-122.11C550.06,-122.11 550.06,-140.99 550.06,-140.99"/>
<polygon fill="black" stroke="black" points="546.56,-140.99 550.06,-150.99 553.56,-140.99 546.56,-140.99"/>
</g>
<!-- SearchClientsModule -->
<g id="node4" class="node">
<title>SearchClientsModule</title>
<polygon fill="#8dd3c7" stroke="black" points="513.8,-122 510.8,-126 489.8,-126 486.8,-122 376.2,-122 376.2,-86 513.8,-86 513.8,-122"/>
<text text-anchor="middle" x="445" y="-99.8" font-family="Times,serif" font-size="14.00">SearchClientsModule</text>
</g>
<!-- SearchClientsModule&#45;&gt;GqlModule -->
<g id="edge4" class="edge">
<title>SearchClientsModule&#45;&gt;GqlModule</title>
<path fill="none" stroke="black" d="M500.69,-122.11C500.69,-122.11 500.69,-140.99 500.69,-140.99"/>
<polygon fill="black" stroke="black" points="497.19,-140.99 500.69,-150.99 504.19,-140.99 497.19,-140.99"/>
</g>
<!-- SearchUnlinkedMsisdnsModule -->
<g id="node5" class="node">
<title>SearchUnlinkedMsisdnsModule</title>
<polygon fill="#8dd3c7" stroke="black" points="358.41,-122 355.41,-126 334.41,-126 331.41,-122 161.59,-122 161.59,-86 358.41,-86 358.41,-122"/>
<text text-anchor="middle" x="260" y="-99.8" font-family="Times,serif" font-size="14.00">SearchUnlinkedMsisdnsModule</text>
</g>
<!-- SearchUnlinkedMsisdnsModule&#45;&gt;GqlModule -->
<g id="edge5" class="edge">
<title>SearchUnlinkedMsisdnsModule&#45;&gt;GqlModule</title>
<path fill="none" stroke="black" d="M260,-122.02C260,-139.37 260,-163 260,-163 260,-163 477.88,-163 477.88,-163"/>
<polygon fill="black" stroke="black" points="477.88,-166.5 487.88,-163 477.88,-159.5 477.88,-166.5"/>
</g>
<!-- AppService -->
<g id="node7" class="node">
<title>AppService</title>
<ellipse fill="#fdb462" stroke="black" cx="81" cy="-104" rx="56.74" ry="18"/>
<text text-anchor="middle" x="81" y="-99.8" font-family="Times,serif" font-size="14.00">AppService</text>
</g>
<!-- AppService&#45;&gt;GqlModule -->
<g id="edge6" class="edge">
<title>AppService&#45;&gt;GqlModule</title>
<path fill="none" stroke="black" d="M81,-122.28C81,-143.32 81,-175 81,-175 81,-175 477.94,-175 477.94,-175"/>
<polygon fill="black" stroke="black" points="477.94,-178.5 487.94,-175 477.94,-171.5 477.94,-178.5"/>
</g>
</g>
</svg>
