<?xml version="1.0" encoding="UTF-8" standalone="no"?>
<!DOCTYPE svg PUBLIC "-//W3C//DTD SVG 1.1//EN"
 "http://www.w3.org/Graphics/SVG/1.1/DTD/svg11.dtd">
<!-- Generated by graphviz version 2.47.0 (20210316.0004)
 -->
<!-- Title: dependencies Pages: 1 -->
<svg width="548pt" height="284pt"
 viewBox="0.00 0.00 548.00 284.00" xmlns="http://www.w3.org/2000/svg" xmlns:xlink="http://www.w3.org/1999/xlink">
<g id="graph0" class="graph" transform="scale(1 1) rotate(0) translate(4 280)">
<title>dependencies</title>
<polygon fill="white" stroke="transparent" points="-4,4 -4,-280 544,-280 544,4 -4,4"/>
<text text-anchor="start" x="249.01" y="-42.4" font-family="Times-12" font-weight="bold" font-size="14.00">Legend</text>
<polygon fill="#ffffb3" stroke="transparent" points="36,-10 36,-30 56,-30 56,-10 36,-10"/>
<text text-anchor="start" x="59.63" y="-15.4" font-family="Times-12" font-size="14.00"> &#160;Declarations</text>
<polygon fill="#8dd3c7" stroke="transparent" points="149,-10 149,-30 169,-30 169,-10 149,-10"/>
<text text-anchor="start" x="172.73" y="-15.4" font-family="Times-12" font-size="14.00"> &#160;Module</text>
<polygon fill="#80b1d3" stroke="transparent" points="235,-10 235,-30 255,-30 255,-10 235,-10"/>
<text text-anchor="start" x="258.78" y="-15.4" font-family="Times-12" font-size="14.00"> &#160;Bootstrap</text>
<polygon fill="#fdb462" stroke="transparent" points="332,-10 332,-30 352,-30 352,-10 332,-10"/>
<text text-anchor="start" x="355.67" y="-15.4" font-family="Times-12" font-size="14.00"> &#160;Providers</text>
<polygon fill="#fb8072" stroke="transparent" points="428,-10 428,-30 448,-30 448,-10 428,-10"/>
<text text-anchor="start" x="451.73" y="-15.4" font-family="Times-12" font-size="14.00"> &#160;Exports</text>
<g id="clust1" class="cluster">
<title>cluster_ApimeIntegrationModule</title>
<polygon fill="none" stroke="black" stroke-dasharray="1,5" points="8,-70 8,-268 532,-268 532,-70 8,-70"/>
</g>
<g id="clust6" class="cluster">
<title>cluster_ApimeIntegrationModule_providers</title>
<polygon fill="none" stroke="black" points="52,-78 52,-130 489,-130 489,-78 52,-78"/>
</g>
<g id="clust4" class="cluster">
<title>cluster_ApimeIntegrationModule_exports</title>
<polygon fill="none" stroke="black" points="16,-208 16,-260 524,-260 524,-208 16,-208"/>
</g>
<!-- ApimeConnectionGuard  -->
<g id="node1" class="node">
<title>ApimeConnectionGuard </title>
<polygon fill="#fb8072" stroke="black" points="515.63,-252 358.37,-252 358.37,-216 515.63,-216 515.63,-252"/>
<text text-anchor="middle" x="437" y="-229.8" font-family="Times,serif" font-size="14.00">ApimeConnectionGuard </text>
</g>
<!-- ApimeIntegrationService  -->
<g id="node2" class="node">
<title>ApimeIntegrationService </title>
<polygon fill="#fb8072" stroke="black" points="340.5,-252 179.5,-252 179.5,-216 340.5,-216 340.5,-252"/>
<text text-anchor="middle" x="260" y="-229.8" font-family="Times,serif" font-size="14.00">ApimeIntegrationService </text>
</g>
<!-- SearchApimeService  -->
<g id="node3" class="node">
<title>SearchApimeService </title>
<polygon fill="#fb8072" stroke="black" points="161.67,-252 24.33,-252 24.33,-216 161.67,-216 161.67,-252"/>
<text text-anchor="middle" x="93" y="-229.8" font-family="Times,serif" font-size="14.00">SearchApimeService </text>
</g>
<!-- ApimeIntegrationModule -->
<g id="node4" class="node">
<title>ApimeIntegrationModule</title>
<polygon fill="#8dd3c7" stroke="black" points="339.57,-187 336.57,-191 315.57,-191 312.57,-187 180.43,-187 180.43,-151 339.57,-151 339.57,-187"/>
<text text-anchor="middle" x="260" y="-164.8" font-family="Times,serif" font-size="14.00">ApimeIntegrationModule</text>
</g>
<!-- ApimeIntegrationModule&#45;&gt;ApimeConnectionGuard  -->
<g id="edge1" class="edge">
<title>ApimeIntegrationModule&#45;&gt;ApimeConnectionGuard </title>
<path fill="none" stroke="black" stroke-dasharray="5,2" d="M339.77,-169C379.65,-169 419.54,-169 419.54,-169 419.54,-169 419.54,-205.89 419.54,-205.89"/>
<polygon fill="black" stroke="black" points="416.04,-205.89 419.54,-215.89 423.04,-205.89 416.04,-205.89"/>
</g>
<!-- ApimeIntegrationModule&#45;&gt;ApimeIntegrationService  -->
<g id="edge2" class="edge">
<title>ApimeIntegrationModule&#45;&gt;ApimeIntegrationService </title>
<path fill="none" stroke="black" stroke-dasharray="5,2" d="M260,-187.11C260,-187.11 260,-205.99 260,-205.99"/>
<polygon fill="black" stroke="black" points="256.5,-205.99 260,-215.99 263.5,-205.99 256.5,-205.99"/>
</g>
<!-- ApimeIntegrationModule&#45;&gt;SearchApimeService  -->
<g id="edge3" class="edge">
<title>ApimeIntegrationModule&#45;&gt;SearchApimeService </title>
<path fill="none" stroke="black" stroke-dasharray="5,2" d="M180.34,-169C144.95,-169 111.14,-169 111.14,-169 111.14,-169 111.14,-205.89 111.14,-205.89"/>
<polygon fill="black" stroke="black" points="107.64,-205.89 111.14,-215.89 114.64,-205.89 107.64,-205.89"/>
</g>
<!-- ApimeIntegrationService -->
<g id="node5" class="node">
<title>ApimeIntegrationService</title>
<ellipse fill="#fdb462" stroke="black" cx="372" cy="-104" rx="108.78" ry="18"/>
<text text-anchor="middle" x="372" y="-99.8" font-family="Times,serif" font-size="14.00">ApimeIntegrationService</text>
</g>
<!-- ApimeIntegrationService&#45;&gt;ApimeIntegrationModule -->
<g id="edge4" class="edge">
<title>ApimeIntegrationService&#45;&gt;ApimeIntegrationModule</title>
<path fill="none" stroke="black" d="M301.45,-117.78C301.45,-117.78 301.45,-140.55 301.45,-140.55"/>
<polygon fill="black" stroke="black" points="297.95,-140.55 301.45,-150.55 304.95,-140.55 297.95,-140.55"/>
</g>
<!-- SearchApimeService -->
<g id="node6" class="node">
<title>SearchApimeService</title>
<ellipse fill="#fdb462" stroke="black" cx="153" cy="-104" rx="92.59" ry="18"/>
<text text-anchor="middle" x="153" y="-99.8" font-family="Times,serif" font-size="14.00">SearchApimeService</text>
</g>
<!-- SearchApimeService&#45;&gt;ApimeIntegrationModule -->
<g id="edge5" class="edge">
<title>SearchApimeService&#45;&gt;ApimeIntegrationModule</title>
<path fill="none" stroke="black" d="M213,-117.78C213,-117.78 213,-140.55 213,-140.55"/>
<polygon fill="black" stroke="black" points="209.5,-140.55 213,-150.55 216.5,-140.55 209.5,-140.55"/>
</g>
</g>
</svg>
