<?xml version="1.0" encoding="UTF-8" standalone="no"?>
<!DOCTYPE svg PUBLIC "-//W3C//DTD SVG 1.1//EN"
 "http://www.w3.org/Graphics/SVG/1.1/DTD/svg11.dtd">
<!-- Generated by graphviz version 2.47.0 (20210316.0004)
 -->
<!-- Title: dependencies Pages: 1 -->
<svg width="504pt" height="211pt"
 viewBox="0.00 0.00 504.00 211.00" xmlns="http://www.w3.org/2000/svg" xmlns:xlink="http://www.w3.org/1999/xlink">
<g id="graph0" class="graph" transform="scale(1 1) rotate(0) translate(4 207)">
<title>dependencies</title>
<polygon fill="white" stroke="transparent" points="-4,4 -4,-207 500,-207 500,4 -4,4"/>
<text text-anchor="start" x="227.01" y="-42.4" font-family="Times-12" font-weight="bold" font-size="14.00">Legend</text>
<polygon fill="#ffffb3" stroke="transparent" points="14,-10 14,-30 34,-30 34,-10 14,-10"/>
<text text-anchor="start" x="37.63" y="-15.4" font-family="Times-12" font-size="14.00"> &#160;Declarations</text>
<polygon fill="#8dd3c7" stroke="transparent" points="127,-10 127,-30 147,-30 147,-10 127,-10"/>
<text text-anchor="start" x="150.73" y="-15.4" font-family="Times-12" font-size="14.00"> &#160;Module</text>
<polygon fill="#80b1d3" stroke="transparent" points="213,-10 213,-30 233,-30 233,-10 213,-10"/>
<text text-anchor="start" x="236.78" y="-15.4" font-family="Times-12" font-size="14.00"> &#160;Bootstrap</text>
<polygon fill="#fdb462" stroke="transparent" points="310,-10 310,-30 330,-30 330,-10 310,-10"/>
<text text-anchor="start" x="333.67" y="-15.4" font-family="Times-12" font-size="14.00"> &#160;Providers</text>
<polygon fill="#fb8072" stroke="transparent" points="406,-10 406,-30 426,-30 426,-10 406,-10"/>
<text text-anchor="start" x="429.73" y="-15.4" font-family="Times-12" font-size="14.00"> &#160;Exports</text>
<g id="clust1" class="cluster">
<title>cluster_CoreModule</title>
<polygon fill="none" stroke="black" stroke-dasharray="1,5" points="118,-70 118,-195 378,-195 378,-70 118,-70"/>
</g>
<g id="clust3" class="cluster">
<title>cluster_CoreModule_imports</title>
<polygon fill="none" stroke="black" points="126,-78 126,-130 370,-130 370,-78 126,-78"/>
</g>
<!-- KeycloakModule -->
<g id="node1" class="node">
<title>KeycloakModule</title>
<polygon fill="#8dd3c7" stroke="black" points="361.69,-122 358.69,-126 337.69,-126 334.69,-122 248.31,-122 248.31,-86 361.69,-86 361.69,-122"/>
<text text-anchor="middle" x="305" y="-99.8" font-family="Times,serif" font-size="14.00">KeycloakModule</text>
</g>
<!-- CoreModule -->
<g id="node3" class="node">
<title>CoreModule</title>
<polygon fill="#8dd3c7" stroke="black" points="286.26,-187 283.26,-191 262.26,-191 259.26,-187 199.74,-187 199.74,-151 286.26,-151 286.26,-187"/>
<text text-anchor="middle" x="243" y="-164.8" font-family="Times,serif" font-size="14.00">CoreModule</text>
</g>
<!-- KeycloakModule&#45;&gt;CoreModule -->
<g id="edge1" class="edge">
<title>KeycloakModule&#45;&gt;CoreModule</title>
<path fill="none" stroke="black" d="M267.39,-122.11C267.39,-122.11 267.39,-140.99 267.39,-140.99"/>
<polygon fill="black" stroke="black" points="263.89,-140.99 267.39,-150.99 270.89,-140.99 263.89,-140.99"/>
</g>
<!-- RabbitModule -->
<g id="node2" class="node">
<title>RabbitModule</title>
<polygon fill="#8dd3c7" stroke="black" points="230.38,-122 227.38,-126 206.38,-126 203.38,-122 133.62,-122 133.62,-86 230.38,-86 230.38,-122"/>
<text text-anchor="middle" x="182" y="-99.8" font-family="Times,serif" font-size="14.00">RabbitModule</text>
</g>
<!-- RabbitModule&#45;&gt;CoreModule -->
<g id="edge2" class="edge">
<title>RabbitModule&#45;&gt;CoreModule</title>
<path fill="none" stroke="black" d="M215.03,-122.11C215.03,-122.11 215.03,-140.99 215.03,-140.99"/>
<polygon fill="black" stroke="black" points="211.53,-140.99 215.03,-150.99 218.53,-140.99 211.53,-140.99"/>
</g>
</g>
</svg>
